<svg xmlns="http://www.w3.org/2000/svg" xmlns:xlink="http://www.w3.org/1999/xlink" viewBox="0 0 576 100"><defs><linearGradient id="Gold_Gradient" x1="-3.64" y1="1.5" x2="575.67" y2="1.5" gradientUnits="userSpaceOnUse"><stop offset="0" stop-color="#805e1b"/><stop offset="0.07" stop-color="#896722"/><stop offset="0.18" stop-color="#a17f35"/><stop offset="0.33" stop-color="#c8a754"/><stop offset="0.5" stop-color="#fedd7f"/><stop offset="0.5" stop-color="#ffdf80"/><stop offset="0.51" stop-color="#fddd7e"/><stop offset="0.66" stop-color="#c7a654"/><stop offset="0.79" stop-color="#a17e36"/><stop offset="0.9" stop-color="#896623"/><stop offset="0.96" stop-color="#805d1c"/></linearGradient><linearGradient id="Gold_Gradient-2" x1="-3.64" y1="99.25" x2="575.67" y2="99.25" xlink:href="#Gold_Gradient"/><linearGradient id="Gold_Gradient-3" x1="-3.64" y1="50.21" x2="575.67" y2="50.21" xlink:href="#Gold_Gradient"/><linearGradient id="Gold_Gradient-4" x1="-3.64" y1="50.71" x2="575.67" y2="50.71" xlink:href="#Gold_Gradient"/><linearGradient id="Gold_Gradient-5" x1="-3.64" y1="50.67" x2="575.67" y2="50.67" xlink:href="#Gold_Gradient"/><linearGradient id="Gold_Gradient-6" x1="-3.64" y1="51.2" x2="575.67" y2="51.2" xlink:href="#Gold_Gradient"/><linearGradient id="Gold_Gradient-7" x1="-3.64" y1="49.72" x2="575.67" y2="49.72" xlink:href="#Gold_Gradient"/><linearGradient id="Gold_Gradient-8" x1="-3.64" y1="49.74" x2="575.67" y2="49.74" xlink:href="#Gold_Gradient"/></defs><g id="Layer_2" data-name="Layer 2"><g id="Logos"><rect width="576" height="3" style="fill:url(#Gold_Gradient)"/><rect y="98.5" width="576" height="1.5" style="fill:url(#Gold_Gradient-2)"/><path d="M54.25,34.94C58,45.17,63.84,59.35,65.61,63.65c1.69,3.88,2.54,4,5.64,5.22,1.62.63,2.19,1.62,2.19,2.4s-1.06,1.06-2.26,1.06c-2.68,0-7.27-.36-10.72-.36-3.11,0-4.38.29-6.77.29-1.77,0-2.4-.71-2.4-1.2a2.59,2.59,0,0,1,2-2.19c2.75-1,2.82-2.19,2.33-3.88a51.45,51.45,0,0,0-2.12-5.71,2.17,2.17,0,0,0-1.83-1.06,111,111,0,0,0-11.78.07,2.32,2.32,0,0,0-1.13,1.06A30.22,30.22,0,0,0,37,65.91c0,1.13.7,2.18,3.31,3,.92.35,1.84.78,1.84,1.62.07.43-.85,1.63-2.68,1.63-.78,0-2.82-.22-5-.22-2.54,0-4.94.36-7.76.36-1.48,0-2.54-.57-2.54-1.42,0-.7.56-1.41,2.12-1.9,2.89-1.06,4.23-1.69,6-5.36C34.22,59.63,40,45,44,34.45a5.76,5.76,0,0,0,.35-1.63,2.18,2.18,0,0,1,.57-.91c.84-.57,3.6-2.4,4.37-3a3.6,3.6,0,0,1,1.69-.77C52.06,28.1,52.42,30.21,54.25,34.94ZM51.36,53c-1.06-3.46-4.23-11.64-4.87-12.77a.53.53,0,0,0-.92,0C44.3,43.05,41.62,50.74,41,53a.68.68,0,0,0,.63.84c1.06.07,8.05.07,9.17,0C51.08,53.84,51.43,53.28,51.36,53Z" style="fill:url(#Gold_Gradient-3)"/><path d="M110.82,45a24,24,0,0,1-4,2.54c-.21.07-.14.77.21.91,4.59,1.63,8.89,5.15,8.89,10.72,0,6.78-5,10.23-9.1,11.78a34.46,34.46,0,0,1-10.09,1.56c-4.44,0-8.46-.36-11.28-.43-2.4-.07-6.07.15-7.41.15s-2.47-.43-2.47-1.35c0-.7.85-1.69,2.68-2,3.11-.71,4.23-1.48,4.45-4A145.26,145.26,0,0,0,83.17,50c0-6.07-.14-12-.28-13.62-.21-2.4-.57-3.17-4.45-3.81-.77-.14-2.18-.92-2.18-1.76s1.55-1.41,2.68-1.41h5.64c2.54,0,8.54-.5,13.26-.5,5.15,0,9.45,1.34,11.29,2.82a9.43,9.43,0,0,1,3.74,7.55A7.88,7.88,0,0,1,110.82,45ZM96.15,50.81a8.5,8.5,0,0,0-2.82.42,4.58,4.58,0,0,0-.85,1.63,70.5,70.5,0,0,0,.42,12.06c.43,2.12,3.25,4.16,5.15,4.16,3.11,0,5.93-3,6.35-4.09a14.36,14.36,0,0,0,1.06-5.08C105.46,53.42,100.52,50.81,96.15,50.81ZM95.23,32.4a9.48,9.48,0,0,0-2.11.35c-.29.14-.43.36-.5,1.06-.21,4.73-.35,11.64,0,12.77.14.63.71,1.13,2,1.13a17.1,17.1,0,0,0,6.84-1.48c.63-.57,2.26-2.19,2.26-5.93C103.7,35.72,100.31,32.4,95.23,32.4Z" style="fill:url(#Gold_Gradient-4)"/><path d="M173.25,50.67a22.56,22.56,0,0,1-11.78,19.61,27,27,0,0,1-12.28,3C134.87,73.24,125,63.08,125,50.81a21.81,21.81,0,0,1,6.42-15.38,25.82,25.82,0,0,1,17.7-7.33C163.23,28.1,173.25,37.83,173.25,50.67Zm-32.73-15.8c-3,3.17-4.52,8-4.52,14.81,0,9.67,5,20.18,15,20.18a11.64,11.64,0,0,0,6.63-2.68c2.47-2.33,4.51-7,4.51-16.09,0-8.25-4.58-19.54-14.25-19.54C144.47,31.55,141.22,34.09,140.52,34.87Z" style="fill:url(#Gold_Gradient-5)"/><path d="M182.84,29.16c2.19,0,6.91.35,9.24.35,3.1,0,6-.21,7-.21,1.77,0,2.83.84,2.83,1.55s-1.41,1.62-2.47,1.83c-3.32.85-3.74,1.62-4,5.15a145.62,145.62,0,0,0,.07,15.87c.35,6.35,1.76,9.24,3.31,10.8a13.3,13.3,0,0,0,8.33,3.17c5.64,0,10.15-2.82,11.14-10.93.42-2.9.5-10.66.5-14.75,0-7.54-.22-8.25-5.08-9.31-1.41-.35-2.4-1-2.4-2,0-.57.92-1.41,2.68-1.41,1.41,0,3.31.21,6,.21s5.79-.35,8-.35c1.2,0,2.46.35,2.46,1.48,0,.77-1,1.48-2.39,2-3.39,1.06-3.81,1.62-4.24,5.08-.14.85-.42,7.62-.7,13.05-.64,11.08-2.82,15-6.28,18.34-2.89,2.82-7.76,4.16-12.41,4.16-5.58,0-11.57-1.9-14.47-5.78-3.95-5.22-4.09-11.22-4.09-18.06,0-7.9-.21-10.44-.35-12.84-.21-2.82-.92-3.17-3.6-4-1.41-.42-2.4-1-2.4-2S180.65,29.16,182.84,29.16Z" style="fill:url(#Gold_Gradient-6)"/><path d="M270.87,29.51c3.95,0,5.51-.43,5.93-.85.85-.92,1.48-1.55,2-1.55s2,1.06,2,2a72.43,72.43,0,0,0-.85,9.53c0,1.34-.91,2.68-2.11,2.68-.92,0-1.41-1.48-1.56-2.12-1.05-4.65-2.32-4.94-4.65-5.22a58.15,58.15,0,0,0-8.25-.35c-.36,0-.64.56-.71,1.2-.14,1.27-.49,10.51-.49,15s-.07,9.53.21,12.56c.35,5.15,1.55,5.29,4.65,6.49,1.27.49,2.4,1,2.4,1.83,0,1.27-1.41,1.7-2.82,1.7-.7,0-7.62-.36-11.85-.36-2.68,0-5.85.22-7.76.22-1.48,0-2.68-.64-2.68-1.7,0-.56.71-1.41,2.26-1.83,4.51-1.2,5.71-1.91,5.71-6.07,0-1.48.21-10.23.21-16.93V35.08c0-.71-.56-1.48-.77-1.48-1.77,0-6,0-7.48.07-1.69,0-3.6.28-5.43,5.29-.43,1.2-1.2,2.12-1.91,2.12-1,0-1.76-1.2-1.76-2.9.07-2.18.77-5.36.7-9a2.06,2.06,0,0,1,1.77-2,3,3,0,0,1,1.34.78,6.39,6.39,0,0,0,4.23,1.41c2.89.14,3.1.14,5.36.14Z" style="fill:url(#Gold_Gradient-7)"/><path d="M303.06,27.2c.37,0,6.22.22,9.18.22s8-.29,9.47-.29,2.37.66,2.37,1.55-.89,1.48-2.37,1.78c-3.92.88-4.36,2.22-4.51,4.07-.15,1.7-.37,5.25-.37,12.8,0,9,.15,15.32.37,17.83.07,1,1.63,2.52,4.07,3.11a23,23,0,0,0,7.47-.15c2.52-.66,5.55-4.14,7.33-7.4.67-1.4,1.4-1.92,1.7-1.92,1.11,0,1.93,1.48,1.7,2.74-.37,1.78-1.92,7.4-2.44,8.88a3.43,3.43,0,0,1-3.26,1.85c-2.59,0-10.8-.3-20-.3-5,0-10.87.37-12.5.37s-2.74-.74-2.74-1.62,1-1.56,2.29-1.78c4.89-1,5.41-2.66,5.63-4.37s.29-5.62.29-14.43c0-13.39,0-13.76-.14-15.76-.23-2.44-1.19-2.89-3.63-3.85-1.63-.67-2.15-1.11-2.15-1.92C300.84,27.57,302,27.2,303.06,27.2Z" style="fill:url(#Gold_Gradient-8)"/><path d="M346.39,29.16c2.19,0,6.92.35,9.25.35,3.1,0,6-.21,7-.21,1.76,0,2.82.84,2.82,1.55S364,32.47,363,32.68c-3.31.85-3.74,1.62-4,5.15A150.91,150.91,0,0,0,359,53.7c.35,6.35,1.77,9.24,3.32,10.8a13.28,13.28,0,0,0,8.32,3.17c5.64,0,10.16-2.82,11.15-10.93.42-2.9.49-10.66.49-14.75,0-7.54-.21-8.25-5.08-9.31-1.41-.35-2.4-1-2.4-2,0-.57.92-1.41,2.68-1.41,1.41,0,3.32.21,6,.21s5.78-.35,8-.35c1.2,0,2.47.35,2.47,1.48,0,.77-1,1.48-2.4,2-3.38,1.06-3.81,1.62-4.23,5.08-.14.85-.42,7.62-.71,13.05-.63,11.08-2.82,15-6.27,18.34-2.9,2.82-7.76,4.16-12.42,4.16-5.57,0-11.57-1.9-14.46-5.78-3.95-5.22-4.09-11.22-4.09-18.06,0-7.9-.21-10.44-.36-12.84-.21-2.82-.91-3.17-3.59-4-1.41-.42-2.4-1-2.4-2S344.21,29.16,346.39,29.16Z" style="fill:url(#Gold_Gradient-6)"/><path d="M399.65,29.16c2.19,0,6.92.35,9.24.35,3.11,0,6-.21,7-.21,1.76,0,2.82.84,2.82,1.55s-1.41,1.62-2.47,1.83c-3.32.85-3.74,1.62-4,5.15a150.91,150.91,0,0,0,.07,15.87c.35,6.35,1.76,9.24,3.31,10.8a13.3,13.3,0,0,0,8.33,3.17c5.64,0,10.16-2.82,11.14-10.93.43-2.9.5-10.66.5-14.75,0-7.54-.21-8.25-5.08-9.31-1.41-.35-2.4-1-2.4-2,0-.57.92-1.41,2.68-1.41,1.41,0,3.32.21,6,.21s5.78-.35,8-.35c1.2,0,2.47.35,2.47,1.48,0,.77-1,1.48-2.4,2-3.39,1.06-3.81,1.62-4.23,5.08-.14.85-.43,7.62-.71,13.05-.63,11.08-2.82,15-6.28,18.34-2.89,2.82-7.76,4.16-12.41,4.16-5.58,0-11.57-1.9-14.46-5.78-3.95-5.22-4.09-11.22-4.09-18.06,0-7.9-.22-10.44-.36-12.84-.21-2.82-.91-3.17-3.59-4-1.42-.42-2.4-1-2.4-2S397.47,29.16,399.65,29.16Z" style="fill:url(#Gold_Gradient-6)"/><path d="M453,29.08c1.41,0,7.19.43,10,.43s5.78-.14,7.47-.14c1.34,0,2.26.63,2.26,1.48s-.85,1.34-1.69,1.62c-1.41.57-1.91,1.13-.85,2.89s4.94,8,5.93,9c.21.21.7.57,1,.21,1.42-1.76,4.1-5.15,6.07-8.18,1.41-2.26,1-2.89-1.76-3.81-1.41-.49-2-1.06-2-1.76s1.34-1.48,2.12-1.48c1.55.07,3,.21,5.29.21s7.48-.35,9.1-.35c.92,0,2.12.21,2.12,1.05,0,1.13-1.13,2-2.61,2.4a17,17,0,0,0-8.75,5.79c-2.12,2.47-6.42,7.33-7.62,9.1-.21.28-.14.7.07,1.27.49,1.41,8.18,12.55,10.09,14.95s3.88,4.16,7.4,5c1.63.35,2.61,1.2,2.61,1.9,0,1.06-1.48,1.7-2.68,1.7-3,0-7.69-.36-10.65-.36-2.33,0-7,.22-7.69.22-1.13,0-2.32-.57-2.32-1.7,0-.56.56-1.13,1.83-1.76,1.69-.85,2.05-1.41,1.48-2.61a109.7,109.7,0,0,0-6.7-10.44c-.21-.28-1.06-.35-1.2-.14a100.79,100.79,0,0,0-7,9.87c-.78,1.55-.14,2.26,1.76,3.11,1.41.7,2,1.34,2,2a2.1,2.1,0,0,1-2.26,1.7c-1.34,0-3.39-.22-5.36-.22-1.62,0-7.34.36-8.75.36-1,0-2.75-.43-2.75-1.63,0-.84,1.34-1.55,2.26-1.76,3.45-.92,5.78-2,8-4.58A155.18,155.18,0,0,0,469.42,52c.28-.35-.08-1.06-.36-1.69-1-2-6.56-10-8.81-13-2.76-3.67-4.8-4.23-7.48-4.87-1.62-.35-2.33-1.27-2.33-2C450.44,30.07,451,29.08,453,29.08Z" style="fill:url(#Gold_Gradient-4)"/><path d="M505.53,29.08c1.41,0,7.19.43,10,.43s5.78-.14,7.47-.14c1.34,0,2.26.63,2.26,1.48s-.85,1.34-1.69,1.62c-1.41.57-1.91,1.13-.85,2.89s4.94,8,5.93,9c.21.21.7.57,1,.21,1.42-1.76,4.1-5.15,6.07-8.18,1.41-2.26,1-2.89-1.76-3.81-1.41-.49-2-1.06-2-1.76s1.34-1.48,2.12-1.48c1.55.07,3,.21,5.29.21s7.48-.35,9.1-.35c.92,0,2.12.21,2.12,1.05,0,1.13-1.13,2-2.61,2.4a17,17,0,0,0-8.75,5.79c-2.12,2.47-6.42,7.33-7.62,9.1-.21.28-.14.7.07,1.27.49,1.41,8.18,12.55,10.09,14.95s3.88,4.16,7.4,5c1.63.35,2.61,1.2,2.61,1.9,0,1.06-1.48,1.7-2.68,1.7-3,0-7.69-.36-10.65-.36-2.33,0-7,.22-7.69.22-1.13,0-2.32-.57-2.32-1.7,0-.56.56-1.13,1.83-1.76,1.69-.85,2-1.41,1.48-2.61a109.7,109.7,0,0,0-6.7-10.44c-.21-.28-1.06-.35-1.2-.14a100.79,100.79,0,0,0-7,9.87c-.78,1.55-.14,2.26,1.76,3.11,1.41.7,2.05,1.34,2.05,2a2.1,2.1,0,0,1-2.26,1.7c-1.34,0-3.39-.22-5.36-.22-1.62,0-7.34.36-8.75.36-1,0-2.75-.43-2.75-1.63,0-.84,1.34-1.55,2.26-1.76,3.45-.92,5.78-2,8-4.58A157.4,157.4,0,0,0,522,52c.28-.35-.08-1.06-.36-1.69-1-2-6.56-10-8.82-13-2.75-3.67-4.79-4.23-7.47-4.87-1.62-.35-2.33-1.27-2.33-2C503,30.07,503.55,29.08,505.53,29.08Z" style="fill:url(#Gold_Gradient-4)"/></g></g></svg>