<svg id="Layer_1" data-name="Layer 1" xmlns="http://www.w3.org/2000/svg" viewBox="0 0 1202.05 252.47"><path d="M763,331.17H807.4L784.82,282ZM894.71,423H845.78C838,404.93,823.7,369.3,823.7,369.3H747.93L726.35,423H674.16c19.57-46.66,34.63-80.78,51.19-119.17,18.07-41.65,34.87-78.79,57.71-128.72L894.71,423ZM88.57,331.17H133L110.4,282ZM220.29,423H171.36c-7.77-18.06-22.07-53.69-22.07-53.69H73.51L51.94,423H0c19.57-46.68,34.63-80.79,51.19-119.17C69.25,262.17,86.06,225,108.89,175.1ZM342.22,173.88c42.41,0,66.73,32.62,66.73,70.25,0,26.35-15.05,61.47-50.42,67L423.77,423H367.82L303.59,312.1a1.31,1.31,0,0,0-.5,1V423H253.41V173.88ZM644.3,192.17v48.17c-20.83-14.58-43.66-25.59-69.5-25.09-129.71,3.27-89.32,248.15,69,141v48.42C621.7,419,577.54,430.27,551.69,425c-159.28-31.61-119.64-253.66,19.86-251.12,25.34.5,51.43,3.51,72.76,18.31v0Zm420.76,145c30.84-51.43,60.71-107.14,91.33-162.33l45.66,248.41h-45.92l-19.57-111.65-69.49,112.63s-.75,0-2,1.26L993.29,313.1C985,348.48,978.71,385.87,971.46,423H928.05l45.44-246.89,91.58,161.07ZM302.84,214v69.23c5.77,0,11,.25,15.05.25C337,283.47,360,278,360,249.83c0-22.08-17.31-35.89-38.13-35.89l-19.07.05Z" transform="translate(0 -173.86)" style="fill:#fff"/></svg>