<?xml version="1.0" encoding="utf-8"?>
<!-- Generator: Adobe Illustrator 25.2.1, SVG Export Plug-In . SVG Version: 6.00 Build 0)  -->
<svg version="1.1" id="Layer_1" xmlns="http://www.w3.org/2000/svg" xmlns:xlink="http://www.w3.org/1999/xlink" x="0px" y="0px"
	 viewBox="0 0 282.8 110" style="enable-background:new 0 0 282.8 110;" xml:space="preserve">
<style type="text/css">
	.st0{fill:#63666A;}
	.st1{fill:#C15027;}
</style>
<g id="_Logo_2">
	<path class="st0" d="M61.2,98.6V66.3L48.4,83.4c-0.9,1.2-2.2,1.2-3.1,0l-12.7-17v32.1c0,0.7-0.5,1.2-1.1,1.3c-0.1,0-0.1,0-0.2,0
		c-0.7,0-1.2-0.5-1.3-1.1c0,0,0-0.1,0-0.1V62.7c0-0.7,0.5-1.2,1.1-1.3c0,0,0.1,0,0.1,0c0.4,0,0.8,0.2,1,0.5l14.5,19.4l14.7-19.4
		c0.3-0.3,0.7-0.5,1.1-0.5c0.7,0,1.2,0.5,1.3,1.1c0,0,0,0.1,0,0.1v35.9c0,0.7-0.6,1.3-1.3,1.3C61.8,99.8,61.2,99.3,61.2,98.6
		L61.2,98.6z"/>
	<path class="st0" d="M99,99.8h-21c-0.7,0-1.2-0.5-1.3-1.1c0,0,0-0.1,0-0.1V62.7c0-0.7,0.5-1.2,1.1-1.3c0,0,0.1,0,0.1,0h20.7
		c0.7-0.1,1.2,0.4,1.3,1.1c0,0,0,0.1,0,0.1c0,0.7-0.5,1.2-1.1,1.3c-0.1,0-0.1,0-0.2,0H79.2v14.8h18.2c0.7,0,1.2,0.4,1.3,1.1
		c0,0,0,0.1,0,0.1c0,0.7-0.5,1.2-1.1,1.3c0,0-0.1,0-0.1,0H79.2v16.3H99c0.7,0,1.2,0.4,1.3,1.1c0,0,0,0.1,0,0.1
		c0,0.7-0.5,1.2-1.1,1.3C99.1,99.8,99,99.8,99,99.8z"/>
	<path class="st0" d="M142.6,98.6V66.3l-12.9,17.1c-0.9,1.2-2.2,1.2-3.1,0l-12.8-17v32.1c0,0.7-0.6,1.3-1.3,1.3
		c-0.7,0-1.3-0.6-1.3-1.3c0,0,0,0,0,0V62.7c0-0.7,0.5-1.2,1.1-1.3c0.1,0,0.1,0,0.2,0c0.4,0,0.8,0.2,1,0.5l14.5,19.4l14.7-19.4
		c0.3-0.3,0.7-0.5,1.1-0.5c0.7,0,1.2,0.5,1.3,1.1c0,0.1,0,0.1,0,0.2v35.9c0.1,0.7-0.5,1.3-1.2,1.4c-0.7,0.1-1.3-0.5-1.4-1.2
		C142.6,98.7,142.6,98.6,142.6,98.6L142.6,98.6z"/>
	<path class="st0" d="M159.4,99.8c-0.7,0-1.2-0.5-1.3-1.1c0,0,0-0.1,0-0.1V62.7c0-0.7,0.5-1.2,1.1-1.3c0,0,0.1,0,0.1,0h13.1
		c7.9,0,11.7,3.8,11.7,10c0,3.7-1.8,7.2-5.8,8.5c4.2,1.3,7.3,4.3,7.3,9.3c0,7-3.9,10.7-13,10.7L159.4,99.8z M160.6,78.6h12.1
		c5.9,0,8.9-2.3,8.9-7.1c0-4.9-3-7.6-9.1-7.6h-11.9L160.6,78.6z M172.8,97.4c7.2,0,10.4-2.8,10.4-8.2c0-4.6-2.4-8-10.5-8h-12.1v16.3
		L172.8,97.4z"/>
	<path class="st0" d="M217.8,99.8h-21c-0.7,0-1.2-0.5-1.3-1.1c0-0.1,0-0.1,0-0.2V62.7c0-0.7,0.5-1.2,1.1-1.3c0.1,0,0.1,0,0.2,0h20.7
		c0.7-0.1,1.2,0.4,1.3,1.1c0,0,0,0.1,0,0.1c0,0.7-0.5,1.2-1.1,1.3c-0.1,0-0.1,0-0.2,0H198v14.8h18.2c0.7,0,1.2,0.4,1.3,1.1
		c0,0,0,0.1,0,0.1c0,0.7-0.5,1.2-1.1,1.3c0,0-0.1,0-0.1,0H198v16.3h19.7c0.7-0.1,1.2,0.4,1.3,1.1c0,0,0,0.1,0,0.1
		c0,0.7-0.4,1.2-1.1,1.3C217.9,99.8,217.8,99.8,217.8,99.8z"/>
	<path class="st0" d="M254.7,99.4l-10.9-15.1h-11v14.2c0,0.7-0.6,1.3-1.3,1.3c-0.7,0-1.3-0.6-1.3-1.3V62.7c0-0.7,0.5-1.2,1.1-1.3
		c0,0,0.1,0,0.1,0h7.6c1.6,0,3.6,0,4.1,0.1c8.9,0.4,12.6,4.4,12.6,11.4c0,6.3-2.8,10-9.1,11.2l10.2,13.9c0.4,0.5,0.4,1.2-0.1,1.7
		c-0.1,0-0.1,0.1-0.2,0.1C255.9,100.2,255.1,100.1,254.7,99.4C254.7,99.5,254.7,99.5,254.7,99.4z M232.7,81.9h9.2
		c8,0,11.2-2.9,11.2-9.1c0-5.5-2.6-8.6-10-8.9c-0.5-0.1-2.7-0.1-4-0.1h-6.4V81.9z"/>
	<path class="st1" d="M101.3,25.8V11.3c0-0.7,0.6-1.3,1.3-1.3c0,0,0,0,0,0H114c9.2,0,17.1,6.5,18.9,15.5c0.1,0.7-0.3,1.4-1,1.5
		c-0.1,0-0.2,0-0.3,0c-0.6,0-1.1-0.4-1.3-1c-1.6-7.8-8.4-13.4-16.4-13.4h-10v13.2c0.1,0.7-0.5,1.3-1.2,1.4c-0.7,0.1-1.3-0.5-1.4-1.2
		C101.3,25.9,101.3,25.9,101.3,25.8 M131.9,31.5c-0.7-0.1-1.4,0.3-1.5,1C128.8,40.4,121.9,46,114,46h-10V32.8
		c-0.1-0.7-0.7-1.3-1.4-1.2c-0.6,0-1.2,0.6-1.2,1.2v14.5c0,0.7,0.6,1.3,1.3,1.3l0,0H114c9.2,0,17.1-6.5,18.9-15.5
		C133,32.3,132.6,31.7,131.9,31.5C131.9,31.5,131.9,31.5,131.9,31.5 M26.8,27.1c0.1,0,0.2,0,0.3,0c0.6,0,1.1-0.4,1.3-1
		c1.8-9,10.6-14.9,19.7-13.1c3.2,0.6,6.2,2.2,8.5,4.6c0.5,0.5,1.3,0.5,1.8,0c0.5-0.5,0.5-1.3,0-1.8l0,0C54.7,12,49.8,10,44.6,10
		c-9.2,0-17.1,6.5-18.9,15.5C25.6,26.2,26,26.9,26.8,27.1 M58.4,40.9c-0.5-0.5-1.3-0.5-1.8,0c0,0,0,0,0,0c-6.4,6.6-17,6.7-23.6,0.3
		c-2.4-2.4-4.1-5.4-4.7-8.7c-0.1-0.7-0.8-1.2-1.5-1c-0.7,0.1-1.2,0.8-1.1,1.5c0,0,0,0,0,0c2,10.4,12.2,17.3,22.6,15.2
		c3.9-0.8,7.4-2.7,10.1-5.5C58.9,42.3,58.9,41.4,58.4,40.9 M72.6,28.1c-0.7-0.1-1.3,0.5-1.4,1.2s0.5,1.3,1.2,1.4c0.1,0,0.1,0,0.2,0
		h17.6c0.7,0.1,1.3-0.5,1.4-1.2s-0.5-1.3-1.2-1.4c-0.1,0-0.1,0-0.2,0H72.6z M68.1,27.1c0.7,0,1.3-0.6,1.3-1.3c0,0,0,0,0,0V12.6h23.3
		c0.7-0.1,1.3-0.7,1.2-1.4c0-0.6-0.6-1.2-1.2-1.2H68.1c-0.7,0-1.3,0.6-1.3,1.3c0,0,0,0,0,0v14.5C66.8,26.5,67.4,27.1,68.1,27.1
		L68.1,27.1 M92.6,46H69.4V32.8c-0.1-0.7-0.7-1.3-1.4-1.2c-0.6,0-1.2,0.6-1.2,1.2v14.5c0,0.7,0.6,1.3,1.3,1.3h24.6
		c0.7-0.1,1.3-0.7,1.2-1.4C93.8,46.5,93.3,46,92.6,46 M142.2,31.4c-0.7,0-1.3,0.6-1.3,1.3c0,0,0,0,0,0v14.5
		c-0.1,0.7,0.5,1.3,1.2,1.4c0.7,0.1,1.3-0.5,1.4-1.2c0-0.1,0-0.1,0-0.2V32.7C143.5,32,142.9,31.4,142.2,31.4
		C142.2,31.4,142.2,31.4,142.2,31.4 M142.2,10c-0.7,0-1.3,0.6-1.3,1.3c0,0,0,0,0,0v14.5c-0.1,0.7,0.5,1.3,1.2,1.4
		c0.7,0.1,1.3-0.5,1.4-1.2c0-0.1,0-0.1,0-0.2V11.3C143.5,10.6,142.9,10,142.2,10C142.2,10,142.2,10,142.2,10 M185.5,46.7l-16.3-36
		c-0.2-0.5-0.7-0.8-1.2-0.8c-0.5,0-1,0.3-1.2,0.7l-7,14.5c-0.4,0.6-0.1,1.4,0.5,1.8c0.6,0.4,1.4,0.1,1.8-0.5c0-0.1,0.1-0.1,0.1-0.2
		l5.8-12l15.2,33.4c0.2,0.5,0.7,0.8,1.2,0.8c0.2,0,0.4,0,0.5-0.1C185.5,48.2,185.8,47.4,185.5,46.7
		C185.5,46.7,185.5,46.7,185.5,46.7 M172.7,31.5h-14.8h-0.1h-0.1h-0.1l-0.1,0l-0.1,0.1l-0.1,0.1l-0.1,0.1l-0.1,0.1
		c0,0-0.1,0.1-0.1,0.1c0,0-0.1,0.1-0.1,0.1l0,0l-7.3,14.5c-0.3,0.6-0.1,1.4,0.5,1.7c0,0,0,0,0,0c0.6,0.3,1.4,0.1,1.8-0.5l7-13.9h14
		c0.7,0.1,1.3-0.5,1.4-1.2c0.1-0.7-0.5-1.3-1.2-1.4C172.8,31.4,172.7,31.4,172.7,31.5"/>
	<path class="st1" d="M181.2,12L181.2,12c0-1.1,0.9-2,2-2c1.1,0,2,0.9,2,2l0,0c0,1.1-0.9,2-2,2C182.1,14.1,181.2,13.2,181.2,12z
		 M185,12L185,12c0.1-1-0.7-1.9-1.7-1.9c-1-0.1-1.9,0.7-1.9,1.7c0,0.1,0,0.1,0,0.2l0,0c-0.1,1,0.7,1.9,1.7,1.9s1.9-0.7,1.9-1.7
		C185,12.2,185,12.1,185,12z M182.4,11h0.9c0.5,0,0.8,0.2,0.8,0.7c0,0.3-0.2,0.6-0.5,0.6l0.5,0.8h-0.5l-0.5-0.7h-0.4v0.7h-0.4V11z
		 M183.3,12c0.3,0,0.4-0.1,0.4-0.3c0-0.2-0.1-0.3-0.4-0.3h-0.5V12H183.3z"/>
</g>
</svg>
