<svg id="Layer_1" data-name="Layer 1" xmlns="http://www.w3.org/2000/svg" viewBox="0 0 283.4 63.7"><g id="CrimeStoppers"><g id="Crime"><path d="M9.2,47.6a5.92,5.92,0,0,0-2.1-.4,2.54,2.54,0,0,0-1.6.4,1.22,1.22,0,0,0-.6,1,1.28,1.28,0,0,0,.4,1,3.59,3.59,0,0,0,1,.7,10.72,10.72,0,0,0,1.7.6,15.43,15.43,0,0,1,2.4.9A4,4,0,0,1,12,53.1a3.93,3.93,0,0,1,.7,2.3,3.51,3.51,0,0,1-.7,2.3,3.82,3.82,0,0,1-2,1.5,6.55,6.55,0,0,1-2.9.5,10.16,10.16,0,0,1-3.4-.6A10.53,10.53,0,0,1,.8,57.4L2.1,55a8.21,8.21,0,0,0,2.5,1.6,6.51,6.51,0,0,0,2.6.6A3,3,0,0,0,9,56.7a1.52,1.52,0,0,0,.7-1.2,1.16,1.16,0,0,0-.4-1,3.59,3.59,0,0,0-1-.7,10.72,10.72,0,0,0-1.7-.6,15.43,15.43,0,0,1-2.4-.9A4,4,0,0,1,2.6,51a3.84,3.84,0,0,1-.7-2.2,3.23,3.23,0,0,1,.7-2.2,3.68,3.68,0,0,1,1.8-1.4,8.36,8.36,0,0,1,2.9-.5,8.63,8.63,0,0,1,2.8.4,14.46,14.46,0,0,1,2.5,1.1l-1.1,2.5A8,8,0,0,0,9.2,47.6Z" transform="translate(-0.3)" style="fill:#fff"/><path d="M24,49a6.06,6.06,0,0,1,1.9,2,7.35,7.35,0,0,1,.7,3,6,6,0,0,1-.7,3,4.38,4.38,0,0,1-1.8,2,5.07,5.07,0,0,1-2.8.7,5.09,5.09,0,0,1-2.2-.5,4.28,4.28,0,0,1-1.6-1.4v5.9H14.8V48.3h2.7v1.8a3.64,3.64,0,0,1,1.6-1.4,5.09,5.09,0,0,1,2.2-.5A5,5,0,0,1,24,49Zm-1.1,7.4a3.41,3.41,0,0,0,.9-2.4,3.24,3.24,0,0,0-.9-2.4,3,3,0,0,0-2.3-.9,3.17,3.17,0,0,0-2.3.9,3.24,3.24,0,0,0-.9,2.4,3.66,3.66,0,0,0,.9,2.5,3.17,3.17,0,0,0,2.3.9A3.5,3.5,0,0,0,22.9,56.4Z" transform="translate(-0.3)" style="fill:#fff"/><path d="M35.4,57.1a7.89,7.89,0,0,0,1.5-1.2l1.6,1.5a6.65,6.65,0,0,1-8,1.6,5.06,5.06,0,0,1-2.1-2,6.78,6.78,0,0,1,0-6,5.48,5.48,0,0,1,2-2,6.17,6.17,0,0,1,3.1-.7,5.14,5.14,0,0,1,3.7,1.4,4.68,4.68,0,0,1,1.5,3.7l-8,2.3a3.33,3.33,0,0,0,1.2,1.4,3.45,3.45,0,0,0,1.8.5A4.8,4.8,0,0,0,35.4,57.1Zm-4.2-5.8a3.74,3.74,0,0,0-.8,2.5L36,52.2a2.54,2.54,0,0,0-2.6-1.7A2.54,2.54,0,0,0,31.2,51.3Z" transform="translate(-0.3)" style="fill:#fff"/><path d="M51.5,48.3V59.5H48.8V57.7a3.64,3.64,0,0,1-1.6,1.4,5.54,5.54,0,0,1-5-.2,6.06,6.06,0,0,1-1.9-2,7.35,7.35,0,0,1-.7-3,6,6,0,0,1,.7-3,4.59,4.59,0,0,1,1.9-2,5.54,5.54,0,0,1,5-.2,4.28,4.28,0,0,1,1.6,1.4V48.3Zm-3.7,8.3a3.47,3.47,0,0,0,1-2.2v-.8a3.47,3.47,0,0,0-1-2.2,2.86,2.86,0,0,0-2.2-.8,2.9,2.9,0,0,0-2.3,1,3.49,3.49,0,0,0-.9,2.5,3.66,3.66,0,0,0,.9,2.5,3.26,3.26,0,0,0,2.3,1A5,5,0,0,0,47.8,56.6Z" transform="translate(-0.3)" style="fill:#fff"/><path d="M61.8,59.6l-3-4.9L57,56.5v3.1H54.3V44H57v9l4.6-4.7h3.2l-4.2,4.3L65,59.5H61.8Z" transform="translate(-0.3)" style="fill:#fff"/><path d="M81.8,48.3V59.5H79V57.4a4.05,4.05,0,0,1-3.9,2.2,3.77,3.77,0,0,1-3-1.2A4.59,4.59,0,0,1,71,55.2v-7h2.8v6.2a2.44,2.44,0,0,0,.6,1.8,2.48,2.48,0,0,0,1.8.7,2.58,2.58,0,0,0,2.1-.9,3.57,3.57,0,0,0,.8-2.3V48.2h2.7Z" transform="translate(-0.3)" style="fill:#fff"/><path d="M93.5,49a6.06,6.06,0,0,1,1.9,2,7.35,7.35,0,0,1,.7,3,6,6,0,0,1-.7,3,4.38,4.38,0,0,1-1.8,2,5.54,5.54,0,0,1-5,.2A4.28,4.28,0,0,1,87,57.8v5.9H84.3V48.3H87v1.8a3.64,3.64,0,0,1,1.6-1.4,5.09,5.09,0,0,1,2.2-.5A5,5,0,0,1,93.5,49Zm-1.1,7.4a3.41,3.41,0,0,0,.9-2.4,3.24,3.24,0,0,0-.9-2.4,3,3,0,0,0-2.3-.9,3.17,3.17,0,0,0-2.3.9,3,3,0,0,0-.8,2.3,3.66,3.66,0,0,0,.9,2.5,3.17,3.17,0,0,0,2.3.9A2.94,2.94,0,0,0,92.4,56.4Z" transform="translate(-0.3)" style="fill:#fff"/><path d="M100.7,57.2a1.37,1.37,0,0,1,.4,1.1,1.5,1.5,0,0,1-.4,1.1,1.45,1.45,0,0,1-2,0,1.71,1.71,0,0,1,0-2.2,1.28,1.28,0,0,1,1-.4A1,1,0,0,1,100.7,57.2Z" transform="translate(-0.3)" style="fill:#fff"/><path d="M116.2,47.6a5.92,5.92,0,0,0-2.1-.4,2.54,2.54,0,0,0-1.6.4,1.22,1.22,0,0,0-.6,1,1.28,1.28,0,0,0,.4,1,3.59,3.59,0,0,0,1,.7,10.72,10.72,0,0,0,1.7.6,15.43,15.43,0,0,1,2.4.9,4,4,0,0,1,1.6,1.3,3.93,3.93,0,0,1,.7,2.3,3.51,3.51,0,0,1-.7,2.3,3.82,3.82,0,0,1-2,1.5,6.55,6.55,0,0,1-2.9.5,10.16,10.16,0,0,1-3.4-.6,10.53,10.53,0,0,1-2.9-1.7L109,55a8.21,8.21,0,0,0,2.5,1.6,6.51,6.51,0,0,0,2.6.6,3,3,0,0,0,1.8-.5,1.52,1.52,0,0,0,.7-1.2,1.16,1.16,0,0,0-.4-1,3.59,3.59,0,0,0-1-.7,10.72,10.72,0,0,0-1.7-.6,15.43,15.43,0,0,1-2.4-.9,4,4,0,0,1-1.6-1.3,3.84,3.84,0,0,1-.7-2.2,3.23,3.23,0,0,1,.7-2.2,5.75,5.75,0,0,1,1.9-1.5,8.36,8.36,0,0,1,2.9-.5,8.63,8.63,0,0,1,2.8.4,14.46,14.46,0,0,1,2.5,1.1l-1.1,2.5A9.43,9.43,0,0,0,116.2,47.6Z" transform="translate(-0.3)" style="fill:#fff"/><path d="M127.5,58.9a5.66,5.66,0,0,1-2.8.8,3,3,0,0,1-2.4-1,4,4,0,0,1-.9-2.7V45.7h2.7v3.1h3.2v2h-3.2v4.7q0,1.8,1.2,1.8a4.66,4.66,0,0,0,1.6-.5Z" transform="translate(-0.3)" style="fill:#fff"/><path d="M140.1,48.3V59.5h-2.7V57.7a3.64,3.64,0,0,1-1.6,1.4,5.54,5.54,0,0,1-5-.2,6.06,6.06,0,0,1-1.9-2,7.35,7.35,0,0,1-.7-3,6,6,0,0,1,.7-3,4.59,4.59,0,0,1,1.9-2,5.54,5.54,0,0,1,5-.2,4.28,4.28,0,0,1,1.6,1.4V48.3Zm-3.7,8.3a3.47,3.47,0,0,0,1-2.2v-.8a3.47,3.47,0,0,0-1-2.2,2.86,2.86,0,0,0-2.2-.8,2.9,2.9,0,0,0-2.3,1,3.49,3.49,0,0,0-.9,2.5,3.66,3.66,0,0,0,.9,2.5,3.26,3.26,0,0,0,2.3,1A5,5,0,0,0,136.4,56.6Z" transform="translate(-0.3)" style="fill:#fff"/><path d="M153.3,48.3v10a5.07,5.07,0,0,1-.7,2.8,5.24,5.24,0,0,1-2,1.9,6.53,6.53,0,0,1-2.9.7,8.57,8.57,0,0,1-2.7-.5,8.36,8.36,0,0,1-2.3-1.2l.9-2.1a10,10,0,0,0,2.1,1,6.8,6.8,0,0,0,1.9.3,3.29,3.29,0,0,0,2.2-.8,2.82,2.82,0,0,0,.8-2.3V56.5a4,4,0,0,1-3.7,1.9,4.46,4.46,0,0,1-3.3-1.2,4.22,4.22,0,0,1-1.2-3.2V48h2.8v5.2a2.14,2.14,0,0,0,.7,1.8,2.67,2.67,0,0,0,1.8.7,2.58,2.58,0,0,0,2.1-.9,3.74,3.74,0,0,0,.8-2.5V48h2.7Z" transform="translate(-0.3)" style="fill:#fff"/><path d="M166.5,50.6a5,5,0,0,0-1.6-.3,3.09,3.09,0,0,0-1.1.2.75.75,0,0,0-.4.7.89.89,0,0,0,.5.8,6.77,6.77,0,0,0,1.6.6,13.05,13.05,0,0,1,1.9.7,4.12,4.12,0,0,1,1.3,1,3,3,0,0,1-.7,4.3,5.27,5.27,0,0,1-3.2.9,6.9,6.9,0,0,1-2.5-.4,7.19,7.19,0,0,1-2.1-1.2l.9-1.9a5.24,5.24,0,0,0,1.8,1,7.87,7.87,0,0,0,2,.4,2.13,2.13,0,0,0,1.2-.3.89.89,0,0,0,.5-.8,1.05,1.05,0,0,0-.5-.9,11,11,0,0,0-1.7-.7,5.18,5.18,0,0,1-1.8-.7,2.34,2.34,0,0,1-1.2-1,3.1,3.1,0,0,1-.5-1.7,2.91,2.91,0,0,1,1.2-2.5,4.86,4.86,0,0,1,3-.9,8.33,8.33,0,0,1,2.2.3,5.57,5.57,0,0,1,1.9.9l-1,2A6.4,6.4,0,0,1,166.5,50.6Z" transform="translate(-0.3)" style="fill:#fff"/><path d="M182.6,48.3V59.5h-2.7V57.7a3.64,3.64,0,0,1-1.6,1.4,5.54,5.54,0,0,1-5-.2,6.06,6.06,0,0,1-1.9-2,5.79,5.79,0,0,1-.7-3,6,6,0,0,1,.7-3,4.59,4.59,0,0,1,1.9-2,5.54,5.54,0,0,1,5-.2,4.28,4.28,0,0,1,1.6,1.4V48.3Zm-3.7,8.3a3.47,3.47,0,0,0,1-2.2v-.8a3.47,3.47,0,0,0-1-2.2,2.86,2.86,0,0,0-2.2-.8,2.9,2.9,0,0,0-2.3,1,3.49,3.49,0,0,0-.9,2.5,3.66,3.66,0,0,0,.9,2.5,3.26,3.26,0,0,0,2.3,1A5,5,0,0,0,178.9,56.6Z" transform="translate(-0.3)" style="fill:#fff"/><path d="M188.3,46.6a1.25,1.25,0,0,0-.4,1.1v1.2h2.8v2h-2.8v8.8h-2.7v-12a4.65,4.65,0,0,1,.5-2.1,3,3,0,0,1,1.4-1.3,4.48,4.48,0,0,1,2-.4,5.37,5.37,0,0,1,2.1.5l-.5,2.2a3.93,3.93,0,0,0-1.4-.3A.91.91,0,0,0,188.3,46.6Z" transform="translate(-0.3)" style="fill:#fff"/><path d="M199.2,57.1a7.89,7.89,0,0,0,1.5-1.2l1.6,1.5a6.65,6.65,0,0,1-8,1.6,5.06,5.06,0,0,1-2.1-2,6.78,6.78,0,0,1,0-6,5.48,5.48,0,0,1,2-2,6.17,6.17,0,0,1,3.1-.7,5.14,5.14,0,0,1,3.7,1.4,4.68,4.68,0,0,1,1.5,3.7l-8,2.3a3.33,3.33,0,0,0,1.2,1.4,3.45,3.45,0,0,0,1.8.5A5.49,5.49,0,0,0,199.2,57.1ZM195,51.3a3.74,3.74,0,0,0-.8,2.5l5.6-1.6a2.54,2.54,0,0,0-2.6-1.7A2.44,2.44,0,0,0,195,51.3Z" transform="translate(-0.3)" style="fill:#fff"/><path d="M207.4,57.2a1.37,1.37,0,0,1,.4,1.1,1.5,1.5,0,0,1-.4,1.1,1.45,1.45,0,0,1-2,0,1.71,1.71,0,0,1,0-2.2,1.28,1.28,0,0,1,1-.4A1,1,0,0,1,207.4,57.2Z" transform="translate(-0.3)" style="fill:#fff"/><path d="M277.5,29.4a3.6,3.6,0,0,0,6.2-2.6,3.54,3.54,0,0,0-1-2.6,3.6,3.6,0,0,0-6.2,2.6,3.54,3.54,0,0,0,1,2.6Z" transform="translate(-0.3)" style="fill:#fff"/><path d="M272,19.1h0a9.25,9.25,0,0,0-2-1c-.5-.2-1.5-.5-2.8-.9a14.42,14.42,0,0,1-2.7-1c-.5-.3-.7-.6-.7-1q0-1.2,2.4-1.2a8,8,0,0,1,3.6.9l3.5-3.5a12.48,12.48,0,0,0-6.9-2.2,9.52,9.52,0,0,0-6,1.8,5.7,5.7,0,0,0-2.4,4.8,5,5,0,0,0,2.4,4.5,10.76,10.76,0,0,0,2.1,1.1,15.2,15.2,0,0,0,2.6.9,8.43,8.43,0,0,1,2.5,1.1c.5.4.8.7.8,1.1a1.39,1.39,0,0,1-.5,1,2.54,2.54,0,0,1-1.6.4,10.82,10.82,0,0,1-5.7-1.7l-3.5,3.5a14.09,14.09,0,0,0,4.2,2.2,17.2,17.2,0,0,0,4.8.8,8.63,8.63,0,0,0,5.8-1.9,6.27,6.27,0,0,0,2.3-5C274.2,21.5,273.5,20,272,19.1Z" transform="translate(-0.3)" style="fill:#fff"/><path d="M243.7,30.1h6.1V21a7.84,7.84,0,0,1,1.2-4.6,4.2,4.2,0,0,1,3.6-1.7h1.3V8.9h-.2a7.59,7.59,0,0,0-3.5.9,9.91,9.91,0,0,0-1.7,1.1l-.7.6V9.3h-6.1V30.1Z" transform="translate(-0.3)" style="fill:#fff"/><path d="M235.7,23.1a6.23,6.23,0,0,1-1.8,1.4,7.14,7.14,0,0,1-3.1.8,4.29,4.29,0,0,1-3.4-1.4l13.7-5.6v-.9h0a8.72,8.72,0,0,0-3.1-6.3,10.79,10.79,0,0,0-7.2-2.4,10.91,10.91,0,0,0-7.6,3,10.05,10.05,0,0,0-3.3,7.8,11,11,0,0,0,3,7.9,10.63,10.63,0,0,0,8.1,3.1,11.78,11.78,0,0,0,8.5-3.7Zm-9.9-4a4.44,4.44,0,0,1,1.6-3.7,5.51,5.51,0,0,1,3.6-1.3c1.9,0,3.1.6,3.4,2l-8.6,3.5Z" transform="translate(-0.3)" style="fill:#fff"/><path d="M171.8,37.5h6.1V28l.7.6a7.65,7.65,0,0,0,5.1,1.9,8.81,8.81,0,0,0,6.7-3.1,10.91,10.91,0,0,0,2.8-7.7,10.94,10.94,0,0,0-2.8-7.6,8.8,8.8,0,0,0-6.5-3,9.29,9.29,0,0,0-2.9.5l-3,3V9.3h-6.1V37.5Zm10.6-12.4a4.07,4.07,0,0,1-3.2-1.5,5.58,5.58,0,0,1-1.3-3.9,6,6,0,0,1,1.3-4,3.88,3.88,0,0,1,3.2-1.6,4.07,4.07,0,0,1,3.3,1.6,6.09,6.09,0,0,1,1.4,4,5.64,5.64,0,0,1-1.4,3.9A4.59,4.59,0,0,1,182.4,25.1Z" transform="translate(-0.3)" style="fill:#fff"/><path d="M196.1,37.5h6.1V28l.7.6a7.65,7.65,0,0,0,5.1,1.9,8.81,8.81,0,0,0,6.7-3.1,10.91,10.91,0,0,0,2.8-7.7,10.94,10.94,0,0,0-2.8-7.6,8.8,8.8,0,0,0-6.5-3,9.29,9.29,0,0,0-2.9.5l-3,3V9.3h-6.1V37.5Zm10.6-12.4a4.07,4.07,0,0,1-3.2-1.5,5.58,5.58,0,0,1-1.3-3.9,6,6,0,0,1,1.3-4,3.88,3.88,0,0,1,3.2-1.6,4.07,4.07,0,0,1,3.3,1.6,6.09,6.09,0,0,1,1.4,4,5.64,5.64,0,0,1-1.4,3.9A4.42,4.42,0,0,1,206.7,25.1Z" transform="translate(-0.3)" style="fill:#fff"/><path d="M158.2,9a10.78,10.78,0,0,0-7.9,3.1,10.26,10.26,0,0,0-3.1,7.6,10.49,10.49,0,0,0,3.1,7.6,10.62,10.62,0,0,0,7.9,3.1,10.78,10.78,0,0,0,7.9-3.1,10.26,10.26,0,0,0,3.1-7.6,10.49,10.49,0,0,0-3.1-7.6A10.62,10.62,0,0,0,158.2,9Zm0,16.1a4.54,4.54,0,0,1-3.5-1.5,5.64,5.64,0,0,1-1.4-3.9,5.21,5.21,0,0,1,1.4-3.9,4.4,4.4,0,0,1,3.5-1.5,4.54,4.54,0,0,1,3.5,1.5,5.64,5.64,0,0,1,1.4,3.9,5.21,5.21,0,0,1-1.4,3.9h0A4.4,4.4,0,0,1,158.2,25.1Z" transform="translate(-0.3)" style="fill:#fff"/><path d="M144.1,24.5a3,3,0,0,1-1.6.5,1.76,1.76,0,0,1-1.3-.6,2.35,2.35,0,0,1-.6-1.7V13.6h5V9h-5V3.8h-3.2L132,9.2v4.4h2.4V23a7,7,0,0,0,7.3,7.5,8.57,8.57,0,0,0,5.8-2.5l.1-.1-3.4-3.4Z" transform="translate(-0.3)" style="fill:#fff"/><path d="M129.2,16.6a12.91,12.91,0,0,0-6-2.8c-2.5-.6-4.1-1.1-4.7-1.6a1.92,1.92,0,0,1-.9-1.6,2.14,2.14,0,0,1,.8-1.7,3.59,3.59,0,0,1,2.2-.6,11.43,11.43,0,0,1,5.8,1.7l4.1-4.1a13.72,13.72,0,0,0-4.3-2.3,17,17,0,0,0-5.4-.9,11.11,11.11,0,0,0-6.9,2.1,7,7,0,0,0-2.8,6c0,2.6.7,4.5,2.2,5.7a16.68,16.68,0,0,0,6.8,2.9,11.64,11.64,0,0,1,3.8,1.4,2,2,0,0,1,.9,1.7,2.14,2.14,0,0,1-.8,1.7,4.27,4.27,0,0,1-2.4.7c-2.1,0-4.4-1-6.9-2.9l-4.3,4.3a16.28,16.28,0,0,0,11,4.3,11.09,11.09,0,0,0,7.2-2.3,7.5,7.5,0,0,0,2.8-6A7.83,7.83,0,0,0,129.2,16.6Z" transform="translate(-0.3)" style="fill:#fff"/><path d="M103.1,23.1a6.23,6.23,0,0,1-1.8,1.4,7.14,7.14,0,0,1-3.1.8,4.29,4.29,0,0,1-3.4-1.4l13.7-5.6v-.9h0a8.72,8.72,0,0,0-3.1-6.3,10.79,10.79,0,0,0-7.2-2.4,10.91,10.91,0,0,0-7.6,3,10.05,10.05,0,0,0-3.3,7.8,11,11,0,0,0,3,7.9,10.63,10.63,0,0,0,8.1,3.1,11.78,11.78,0,0,0,8.5-3.7Zm-10-4a4.44,4.44,0,0,1,1.6-3.7,5.51,5.51,0,0,1,3.6-1.3c1.9,0,3.1.6,3.4,2l-8.6,3.5Z" transform="translate(-0.3)" style="fill:#fff"/><path d="M78.8,30.1H85V17.5a8.63,8.63,0,0,0-2.3-6.4,8.08,8.08,0,0,0-6-2.2,10.29,10.29,0,0,0-4.1,1A10.91,10.91,0,0,0,69.9,12l-.4.4-.3-.5a11.9,11.9,0,0,0-1.9-2A8.7,8.7,0,0,0,63.7,9a6.75,6.75,0,0,0-4.4,1.7l-.7.6v-2H52.5V30.1h6.1V18.9a4.79,4.79,0,0,1,1.2-3.5,3.78,3.78,0,0,1,2.8-1.2,2.46,2.46,0,0,1,2.2,1,6.16,6.16,0,0,1,.7,3.4V30h6.2V18.9a4.79,4.79,0,0,1,1.2-3.5,3.78,3.78,0,0,1,2.8-1.2c2.2,0,3.2,1.5,3.2,4.5V30.1Z" transform="translate(-0.3)" style="fill:#fff"/><path d="M42.7,6.2a3.39,3.39,0,0,0,2.6,1,3.54,3.54,0,0,0,2.6-1,3.39,3.39,0,0,0,1-2.6,3.54,3.54,0,0,0-1-2.6,3.39,3.39,0,0,0-2.6-1,3.54,3.54,0,0,0-2.6,1,3.39,3.39,0,0,0-1,2.6,3.39,3.39,0,0,0,1,2.6Z" transform="translate(-0.3)" style="fill:#fff"/><rect x="41.9" y="9.3" width="6.1" height="20.8" style="fill:#fff"/><path d="M39.5,9h-.2a7.59,7.59,0,0,0-3.5.9A9.91,9.91,0,0,0,34.1,11l-.7.6V9.3H27.3V30.1h6.1V21a7.84,7.84,0,0,1,1.2-4.6,4.2,4.2,0,0,1,3.6-1.7h1.3Z" transform="translate(-0.3)" style="fill:#fff"/><path d="M14.4,2.6a13.65,13.65,0,0,0-10,4,13.58,13.58,0,0,0-4.1,10,13.49,13.49,0,0,0,4,9.9,14.11,14.11,0,0,0,10.2,3.9,13.74,13.74,0,0,0,10.2-4.5l-4.1-4.1a8.32,8.32,0,0,1-6.3,2.7A7.1,7.1,0,0,1,9,22.3a7.61,7.61,0,0,1-2.2-5.8,7.45,7.45,0,0,1,2.3-5.7,7.88,7.88,0,0,1,5.5-2.1,9.23,9.23,0,0,1,6.9,3.4l4.2-4.2A15.19,15.19,0,0,0,14.4,2.6Z" transform="translate(-0.3)" style="fill:#fff"/></g></g></svg>