<?xml version="1.0" encoding="utf-8"?>
<!-- Generator: Adobe Illustrator 25.2.1, SVG Export Plug-In . SVG Version: 6.00 Build 0)  -->
<svg version="1.1" id="Layer_1" xmlns="http://www.w3.org/2000/svg" xmlns:xlink="http://www.w3.org/1999/xlink" x="0px" y="0px"
	 viewBox="0 0 312 110" style="enable-background:new 0 0 312 110;" xml:space="preserve">
<style type="text/css">
	.st0{fill:#0D2D49;}
</style>
<g id="Layer_2_1_">
	<g id="Logos">
		<rect x="0.2" class="st0" width="311.7" height="3.2"/>
		<path class="st0" d="M28.7,30c2,0,6.1,0.2,8.2,0.2c2.8,0,7.9-0.4,9.6-0.4s2.4,0.4,2.4,0.9c0,0.9-1,1.3-1.6,1.6
			c-3.8,1-4.4,2.1-4.4,2.9c-0.6,3.7-0.6,11.1-0.6,21.7c0,4.8,0,10.1,0.2,12.7c0.2,2.1,2.7,2.8,2.8,2.8c1.8,0.2,3.8,0.5,5.6,0.5
			c1.7,0,3.5-0.1,5.2-0.5c0.7-0.1,1.3-0.4,1.8-0.9c1.8-1.8,3.5-3.8,4.9-6c0.5-0.7,1.1-1.2,2-1.5c0.6,0,0.6,0.9,0.2,2
			c-0.6,2.1-2,7.3-2.4,9c-0.4,0.5-1,1-1.6,1.2c-1.2,0-7.7-0.5-22.3-0.5c-2.8,0-8.5,0.5-11.5,0.5c-1.3,0-2.2-0.2-2.2-1
			c0-0.6,0.7-1.2,1.8-1.5c4-0.7,4.5-2,4.8-5.4c0.1-1.8,0.4-7.7,0.4-18.1c0-9,0-10.9-0.1-13.2c-0.1-2.9-0.5-3.9-3.7-4.8
			c-1.3-0.4-2.1-1-2.1-1.5C26.5,30.3,27.5,30,28.7,30z"/>
		<path class="st0" d="M74.9,31.6c2.9,0,6.1,0.4,8.5,0.4s7.1-0.4,8.7-0.4c1.3,0,2.1,0.6,2.1,1.1c0,0.6-0.9,1.2-2.2,1.5
			c-2.6,0.5-3.2,1.3-3.5,4.2c-0.2,2.3-0.2,8.8-0.2,18.6c0,8.2,1.7,10.4,4,12.7c1.8,1.8,6.5,2.8,7.7,2.8c4.9,0,10-1.3,11.8-8.9
			c0.9-3.7,1.2-9.6,1.2-20.1c0-4.5-0.2-4.9-0.4-5.6c-0.2-1.8-1.7-2.9-4.6-3.7c-0.7-0.2-2.1-0.7-2.1-1.5c0-0.4,0.7-0.9,2.1-0.9
			c1.6,0,4.4,0.4,6.6,0.4c2.8,0,4.6-0.4,6.6-0.4c1.1,0,1.7,0.6,1.7,1.1c0,0.5-1,1.1-2,1.2c-3.5,0.7-4.5,2.2-4.5,6.6
			c0,3.4-0.4,12-0.6,15.6c-0.6,11.6-4.2,15.9-9.2,18.7c-2.9,1.5-6.1,2.3-9.4,2.2c-6.3,0-10.9-2-13.4-4.3c-3.9-3.7-5.5-7.4-5.5-18.3
			c0-2.9-0.2-16.4-0.4-17.2c-0.1-1.3-0.7-2.6-3.3-3.2c-0.7-0.2-2.1-0.7-2.1-1.3S73.7,31.6,74.9,31.6z"/>
		<path class="st0" d="M130.8,31.6c2.9,0,6.1,0.4,8.5,0.4c2.4,0,7.1-0.4,8.7-0.4c1.3,0,2.1,0.6,2.1,1.1c0,0.6-0.9,1.2-2.2,1.5
			c-2.6,0.5-3.2,1.3-3.5,4.2c-0.2,2.3-0.2,8.8-0.2,18.6c0,8.2,1.7,10.4,4,12.7c1.8,1.8,6.5,2.8,7.7,2.8c4.9,0,10-1.3,11.8-8.9
			c0.9-3.7,1.2-9.6,1.2-20.1c0-4.5-0.2-4.9-0.4-5.6c-0.2-1.8-1.7-2.9-4.6-3.7c-0.7-0.2-2.1-0.7-2.1-1.5c0-0.4,0.7-0.9,2.1-0.9
			c1.6,0,4.4,0.4,6.6,0.4c2.8,0,4.6-0.4,6.6-0.4c1.1,0,1.7,0.6,1.7,1.1c0,0.5-1.1,1.1-2,1.2c-3.5,0.7-4.5,2.2-4.5,6.6
			c0,3.4-0.4,12-0.6,15.6c-0.6,11.6-4.2,15.9-9.2,18.7c-2.8,1.5-6.1,2.3-9.3,2.2c-6.3,0-10.9-2-13.4-4.3c-3.9-3.7-5.5-7.4-5.5-18.3
			c0-2.9-0.2-16.4-0.4-17.2c-0.1-1.3-0.7-2.6-3.3-3.2c-0.7-0.2-2.1-0.7-2.1-1.3S129.6,31.6,130.8,31.6z"/>
		<path class="st0" d="M186.7,31.6c1.3,0,8.4,0.4,11,0.4c2.8,0,4-0.2,6.2-0.2c1.6,0,2.2,0.4,2.2,0.9c0,0.9-0.9,1.3-2.3,2
			c-0.6,0.2-1.1,1-0.9,1.6c0,0.1,0.1,0.2,0.1,0.2c2,3.9,4.2,7.6,6.5,11.2c0.1,0.2,0.4,0.2,0.6,0.1l0.1-0.1c2.9-3.5,5.5-7.2,8.1-11.1
			c0.6-1-0.4-1.8-2.3-2.3c-1.3-0.2-1.8-1.2-1.8-1.6c0-0.6,0.4-1,1.8-1c2.2,0,4.2,0.2,6.1,0.2c2,0,6.1-0.4,7.8-0.4
			c1,0,1.8,0.2,1.8,0.7c0,0.5-1.1,1.3-1.8,1.6c-4.3,1.1-6.8,2.2-9.4,5.2c-2.9,3.5-5.6,6.2-8.5,10.4c-0.1,0.4-0.2,0.7-0.1,1.1
			c0.6,1.8,6.6,11.5,9.8,16.1c2.4,3.5,4.5,6,9.9,7.2c1.3,0.2,1.7,1.1,1.6,1.3c0,0.7-0.9,1.1-2.6,1.1c-1.3,0-10.4-0.5-13.3-0.5
			c-2.1,0-5.1,0.4-6.1,0.4c-1.3,0-1.7-0.6-1.7-1c0-0.4,0.5-1.1,1.7-1.5c0.6-0.2,1.2-0.5,1.8-0.7c0.2-0.4,0.4-0.7,0.2-1.1
			c-1-2-7.2-12.7-8.1-13.6c-0.4-0.4-0.6-0.2-0.7-0.1c-2.3,2.8-4.5,5.7-6.5,8.8c-2.6,4.3-1.7,5.6,1,6.5c1.2,0.4,1.8,1,1.8,1.3
			c0,0.7-0.9,1.2-1.8,1.2c-1.8,0-4.8-0.2-7.1-0.2c-2.9,0-5.2,0.4-6.8,0.4c-1.8,0-2.6-0.4-2.6-0.9c0.1-1,0.9-1.2,2.4-1.6
			c3.1-0.9,5.9-2.6,7.9-5c1.7-1.8,6.8-8.2,10.3-12.7c0.2-0.2,0.2-0.6,0.1-1c-0.2-1.5-5.9-10.7-10.7-17.3c-1.2-2-3.3-3.3-5.6-3.5
			c-1.3-0.2-2.2-1.1-2.1-1.6C184.8,32.4,185.4,31.6,186.7,31.6z"/>
		<path class="st0" d="M240.4,31.6c1.3,0,8.4,0.4,11,0.4c2.8,0,4-0.2,6.2-0.2c1.6,0,2.2,0.4,2.2,0.9c0,0.9-0.9,1.3-2.3,2
			c-0.6,0.2-1.1,1-0.9,1.6c0,0.1,0.1,0.2,0.1,0.2c2,3.9,4.2,7.6,6.5,11.2c0.1,0.2,0.4,0.2,0.6,0.1l0.1-0.1c2.9-3.5,5.6-7.2,8.1-11.1
			c0.6-1-0.4-1.8-2.3-2.3c-1.3-0.2-1.8-1.2-1.8-1.6c0-0.6,0.4-1,1.8-1c2.2,0,4.2,0.2,6.1,0.2s6.1-0.4,7.8-0.4c1,0,1.8,0.2,1.8,0.7
			c0,0.5-1.1,1.3-1.8,1.6c-4.3,1.1-6.8,2.2-9.4,5.2c-2.9,3.5-5.6,6.2-8.5,10.4c-0.1,0.4-0.2,0.7-0.1,1.1c0.6,1.8,6.6,11.5,9.8,16.1
			c2.4,3.5,4.5,6,9.9,7.2c1.3,0.2,1.7,1.1,1.6,1.3c0,0.7-0.9,1.1-2.6,1.1c-1.3,0-10.4-0.5-13.3-0.5c-2.1,0-5.1,0.4-6.1,0.4
			c-1.3,0-1.7-0.6-1.7-1c0-0.4,0.5-1.1,1.7-1.5c0.6-0.2,1.2-0.5,1.8-0.7c0.2-0.4,0.4-0.7,0.2-1.1c-1-2-7.2-12.7-8.1-13.6
			c-0.4-0.4-0.6-0.2-0.7-0.1c-2.3,2.8-4.5,5.7-6.6,8.8c-2.6,4.3-1.7,5.6,1,6.5c1.2,0.4,1.8,1,1.8,1.3c0,0.7-0.9,1.2-1.8,1.2
			c-1.8,0-4.8-0.2-7.1-0.2c-2.9,0-5.2,0.4-6.8,0.4c-1.8,0-2.6-0.4-2.6-0.9c0.1-1,0.9-1.2,2.4-1.6c3.1-0.9,5.9-2.6,7.9-5
			c1.6-1.8,6.8-8.2,10.3-12.7c0.2-0.2,0.2-0.6,0.1-1c-0.4-1.5-5.9-10.9-10.7-17.3c-1.2-2-3.3-3.3-5.6-3.5c-1.3-0.2-2.2-1.1-2.1-1.6
			C238.3,32.4,239,31.6,240.4,31.6z"/>
		<rect x="0.2" y="104.6" class="st0" width="41.9" height="1.6"/>
		<rect x="270" y="104.6" class="st0" width="41.9" height="1.6"/>
		<path class="st0" d="M53.1,101.2h0.7v7.7h3.8v0.7H53v-8.4H53.1z"/>
		<path class="st0" d="M59.6,101.2h0.7v8.4h-0.7V101.2z"/>
		<path class="st0" d="M63.3,101.2h4.4v0.7H64v3.2h3.5v0.7H64v3.8h-0.7V101.2z"/>
		<path class="st0" d="M70,101.2h4.4v0.7h-3.7v3.1h3.4v0.7h-3.4v3.2h3.7v0.7H70V101.2z"/>
		<path class="st0" d="M80.9,101.6v0.9c-0.6-0.4-1.2-0.6-2-0.6c-0.9,0-1.7,0.5-1.7,1.5s0.6,1.2,2,1.8c1.2,0.6,2.2,1.2,2.2,2.4
			c0,1.3-1.1,2.4-2.6,2.4c-0.1,0-0.1,0-0.2,0c-0.9,0-1.6-0.2-2.3-0.7v-1c0.6,0.6,1.5,1,2.3,1.1c1,0.1,1.8-0.6,1.8-1.5c0,0,0,0,0-0.1
			c0-0.9-0.6-1.3-2-1.8c-1.3-0.6-2.2-1.1-2.2-2.4c0-1.2,1.1-2.3,2.3-2.2c0.1,0,0.1,0,0.2,0C79.5,101.1,80.2,101.2,80.9,101.6z"/>
		<path class="st0" d="M85.3,101.9h-2.7v-0.7h6.2v0.7h-2.7v7.7h-0.7v-7.7H85.3z"/>
		<path class="st0" d="M92.6,106.1l-3.2-4.8h0.9l2.6,4l0,0l2.6-4h0.9l-3.2,4.8v3.7h-0.7v-3.7H92.6z"/>
		<path class="st0" d="M98.1,101.2h0.7v7.7h3.8v0.7h-4.6v-8.4H98.1z"/>
		<path class="st0" d="M104.5,101.2h4.4v0.7h-3.7v3.1h3.4v0.7h-3.4v3.2h3.7v0.7h-4.4V101.2z"/>
		<path class="st0" d="M116.4,101.9h-2.7v-0.7h6.2v0.7h-2.7v7.7h-0.7L116.4,101.9z"/>
		<path class="st0" d="M127.4,105.7h-4.9v3.9h-0.7v-8.4h0.7v3.8h4.9v-3.8h0.7v8.4h-0.7V105.7z"/>
		<path class="st0" d="M136.3,109.6h-1.1l-3.3-3.7h-0.1v3.7H131v-8.4h2.1c2,0,2.8,1.1,2.8,2.4s-1.1,2.4-2.9,2.4h-0.1L136.3,109.6z
			 M132.9,105.4c1.7,0,2.2-0.7,2.2-1.7c0-1-0.7-1.7-2.2-1.7h-1.2v3.4H132.9z"/>
		<path class="st0" d="M137.7,105.5c0.1-2.3,2.1-4,4.4-3.9c2.3,0.1,4,2.1,3.9,4.4c-0.1,2.2-2,3.9-4.2,3.9c-2.3,0-4.2-1.8-4.2-4.2
			C137.7,105.6,137.7,105.5,137.7,105.5z M145.2,105.5c-0.1-1.8-1.8-3.2-3.7-3.1c-1.8,0.1-3.2,1.8-3.1,3.7c0.1,1.7,1.6,3.1,3.3,3.1
			c1.8,0,3.4-1.6,3.3-3.4C145.2,105.6,145.2,105.5,145.2,105.5z"/>
		<path class="st0" d="M148.1,106.6v-5.4h0.7v5.4c-0.1,1.2,0.7,2.3,2,2.4c0.1,0,0.2,0,0.4,0c1.2,0,2.3-1,2.4-2.2c0-0.1,0-0.2,0-0.2
			v-5.4h0.7v5.4c0.1,1.7-1.2,3.2-2.9,3.3c-0.1,0-0.1,0-0.2,0c-1.7,0-3.1-1.2-3.1-2.9C148.1,106.8,148.1,106.7,148.1,106.6z"/>
		<path class="st0" d="M160.7,109c0.6,0,1.2-0.1,1.8-0.4v-3.5h0.7v4c-0.7,0.5-1.7,0.7-2.6,0.7c-2.4-0.1-4.3-2.2-4.2-4.6
			c0.1-2.3,2-4,4.2-4.2c0.9,0,1.7,0.2,2.4,0.6v0.9c-0.7-0.5-1.6-0.7-2.4-0.7c-2,0-3.7,1.6-3.7,3.7S158.6,109.1,160.7,109L160.7,109z
			"/>
		<path class="st0" d="M171.3,105.7h-4.9v3.9h-0.7v-8.4h0.7v3.8h4.9v-3.8h0.7v8.4h-0.7V105.7z"/>
		<path class="st0" d="M180,101.9h-2.7v-0.7h6.2v0.7h-2.7v7.7h-0.7L180,101.9z"/>
		<path class="st0" d="M185.4,101.2h4.4v0.7h-3.7v3.1h3.4v0.7h-3.4v3.2h3.7v0.7h-4.4V101.2z"/>
		<path class="st0" d="M195.6,109.9c-2.4-0.1-4.3-2.2-4.2-4.6c0.1-2.3,2-4,4.2-4.2c0.7,0,1.6,0.1,2.2,0.6v0.9
			c-0.6-0.5-1.5-0.6-2.2-0.6c-2,0.2-3.4,2.1-3.3,4c0.2,1.7,1.6,3.1,3.3,3.3c0.7,0,1.6-0.2,2.2-0.7v0.9
			C197.1,109.6,196.3,109.9,195.6,109.9z"/>
		<path class="st0" d="M205.5,105.7h-4.9v3.9h-0.7v-8.4h0.7v3.8h4.9v-3.8h0.7v8.4h-0.7V105.7z"/>
		<path class="st0" d="M215.6,109.6h-0.7l-5-7.3l0,0v7.3h-0.7v-8.4h0.7l4.9,7.1l0,0v-7.1h0.7L215.6,109.6z"/>
		<path class="st0" d="M218,105.5c0.1-2.3,2.1-4,4.4-3.9c2.3,0.1,4,2.1,3.9,4.4c-0.1,2.2-2,3.9-4.2,3.9c-2.3,0-4.2-1.8-4.2-4.2
			C218,105.6,218,105.5,218,105.5z M225.4,105.5c-0.1-1.8-1.8-3.2-3.7-3.1c-1.8,0.1-3.2,1.8-3.1,3.7c0.1,1.7,1.6,3.1,3.3,3.1
			c1.8,0,3.4-1.6,3.3-3.4C225.4,105.6,225.4,105.5,225.4,105.5z"/>
		<path class="st0" d="M228.6,101.2h0.7v7.7h3.8v0.7h-4.6v-8.4H228.6z"/>
		<path class="st0" d="M234,105.5c0.1-2.3,2.1-4,4.4-3.9c2.3,0.1,4,2.1,3.9,4.4c-0.1,2.2-2,3.9-4.2,3.9c-2.3,0-4.2-1.8-4.2-4.2
			C234,105.6,234,105.5,234,105.5z M241.4,105.5c-0.1-1.8-1.8-3.2-3.7-3.1c-1.8,0.1-3.2,1.8-3.1,3.7c0.1,1.7,1.6,3.1,3.4,3.1
			s3.4-1.6,3.3-3.4C241.4,105.6,241.4,105.5,241.4,105.5L241.4,105.5z"/>
		<path class="st0" d="M248.1,109c0.6,0,1.2-0.1,1.8-0.4v-3.5h0.7v4c-0.7,0.5-1.7,0.7-2.6,0.7c-2.4-0.1-4.3-2.2-4.2-4.6
			c0.1-2.3,2-4,4.2-4.2c0.9,0,1.6,0.2,2.3,0.6v0.9c-0.7-0.5-1.6-0.7-2.4-0.7c-2,0-3.7,1.6-3.7,3.7S246,109.1,248.1,109L248.1,109z"
			/>
		<path class="st0" d="M255,106.1l-3.2-4.8h0.9l2.6,4l0,0l2.6-4h0.9l-3.2,4.8v3.7h-0.7L255,106.1z"/>
	</g>
</g>
</svg>
