<svg xmlns="http://www.w3.org/2000/svg" xmlns:xlink="http://www.w3.org/1999/xlink" viewBox="0 0 300 105.76"><defs><linearGradient id="Gold_Gradient" x1="-18.34" y1="1.5" x2="318.69" y2="1.5" gradientUnits="userSpaceOnUse"><stop offset="0" stop-color="#805e1b"/><stop offset="0.07" stop-color="#896722"/><stop offset="0.18" stop-color="#a17f35"/><stop offset="0.33" stop-color="#c8a754"/><stop offset="0.5" stop-color="#fedd7f"/><stop offset="0.5" stop-color="#ffdf80"/><stop offset="0.51" stop-color="#fddd7e"/><stop offset="0.66" stop-color="#c7a654"/><stop offset="0.79" stop-color="#a17e36"/><stop offset="0.9" stop-color="#896623"/><stop offset="0.96" stop-color="#805d1c"/></linearGradient><linearGradient id="Gold_Gradient-2" x1="-18.34" y1="51.14" x2="318.69" y2="51.14" xlink:href="#Gold_Gradient"/><linearGradient id="Gold_Gradient-3" x1="-18.34" y1="52.39" x2="318.69" y2="52.39" xlink:href="#Gold_Gradient"/><linearGradient id="Gold_Gradient-5" x1="-18.34" y1="52.02" x2="318.69" y2="52.02" xlink:href="#Gold_Gradient"/><linearGradient id="Gold_Gradient-7" x1="-18.34" y1="101.5" x2="318.69" y2="101.5" xlink:href="#Gold_Gradient"/></defs><g id="Layer_2" data-name="Layer 2"><g id="Logos"><rect width="300" height="3" style="fill:url(#Gold_Gradient)"/><path d="M27.49,28.86c1.89,0,5.82.21,7.85.21,2.73,0,7.64-.35,9.32-.35s2.31.35,2.31.84c0,.77-.91,1.33-1.47,1.47-3.65.91-4.21,2-4.28,2.81-.49,3.64-.56,10.79-.56,21.08,0,4.56,0,9.81.28,12.26.21,2,2.53,2.74,2.67,2.74a35.85,35.85,0,0,0,5.39.42,25.25,25.25,0,0,0,5-.49,3.85,3.85,0,0,0,1.82-.78,29.42,29.42,0,0,0,4.69-5.81,3,3,0,0,1,1.89-1.4c.56,0,.63.84.28,1.89-.63,2-1.89,7.08-2.31,8.69a3.67,3.67,0,0,1-1.54,1.12c-1.19,0-7.36-.49-21.51-.49-2.73,0-8.27.42-11,.42-1.26,0-2.17-.28-2.17-.91s.7-1.19,1.82-1.4c3.85-.7,4.34-1.89,4.63-5.12.13-1.75.35-7.35.35-17.37,0-8.69,0-10.44-.07-12.75-.08-2.81-.43-3.79-3.58-4.63-1.33-.35-2-.91-2-1.4C25.39,29.14,26.3,28.86,27.49,28.86Z" style="fill:url(#Gold_Gradient-2)"/><path d="M72,30.49c2.83,0,5.85.34,8.28.34s6.86-.34,8.34-.34c1.27,0,2,.54,2,1.08s-.81,1.14-2.09,1.41c-2.42.47-3,1.35-3.43,4-.27,2.22-.27,8.41-.27,17.89,0,7.87,1.62,10,3.84,12.18,1.81,1.81,6.25,2.69,7.46,2.69,4.71,0,9.69-1.28,11.37-8.55.81-3.56,1.14-9.28,1.14-19.37,0-4.37-.2-4.71-.33-5.44-.27-1.75-1.69-2.83-4.51-3.57-.67-.2-2-.67-2-1.41,0-.41.74-.88,2-.88,1.55,0,4.24.34,6.39.34,2.69,0,4.44-.34,6.32-.34,1.08,0,1.68.54,1.68,1.08s-.94,1-1.88,1.21c-3.43.74-4.3,2.15-4.3,6.32,0,3.3-.41,11.57-.54,15.07-.54,11.16-4,15.27-8.81,18a18,18,0,0,1-9,2.09c-6.12,0-10.42-1.88-12.91-4.17C77,66.61,75.44,63,75.44,52.49c0-2.83-.27-15.74-.33-16.55-.14-1.28-.68-2.49-3.23-3-.74-.21-1.95-.74-1.95-1.35S70.8,30.49,72,30.49Z" style="fill:url(#Gold_Gradient-3)"/><path d="M125.82,30.49c2.82,0,5.85.34,8.27.34s6.86-.34,8.34-.34c1.28,0,1.95.54,1.95,1.08s-.81,1.14-2.09,1.41c-2.42.47-3,1.35-3.43,4-.27,2.22-.27,8.41-.27,17.89,0,7.87,1.62,10,3.84,12.18,1.82,1.81,6.25,2.69,7.46,2.69,4.71,0,9.69-1.28,11.37-8.55.81-3.56,1.14-9.28,1.14-19.37,0-4.37-.2-4.71-.33-5.44-.27-1.75-1.68-2.83-4.51-3.57-.67-.2-1.95-.67-1.95-1.41,0-.41.74-.88,1.95-.88,1.55,0,4.24.34,6.39.34,2.69,0,4.44-.34,6.32-.34,1.08,0,1.69.54,1.69,1.08s-1,1-1.89,1.21c-3.43.74-4.3,2.15-4.3,6.32,0,3.3-.41,11.57-.54,15.07-.54,11.16-4,15.27-8.81,18a18,18,0,0,1-8.95,2.09c-6.12,0-10.42-1.88-12.91-4.17-3.77-3.5-5.31-7.13-5.31-17.62,0-2.83-.27-15.74-.34-16.55-.13-1.28-.67-2.49-3.23-3-.74-.21-2-.74-2-1.35S124.61,30.49,125.82,30.49Z" style="fill:url(#Gold_Gradient-3)"/><path d="M179.62,30.49c1.34,0,8.14.34,10.56.34,2.69,0,3.83-.2,6-.2,1.48,0,2.09.33,2.09.81,0,.8-.81,1.34-2.22,1.88a1.22,1.22,0,0,0-.67,1.81,97.08,97.08,0,0,0,6.25,10.77.4.4,0,0,0,.67.06A113.94,113.94,0,0,0,210,35.27c.54-.94-.41-1.82-2.29-2.22-1.28-.27-1.75-1.14-1.75-1.48,0-.54.41-.94,1.75-.94,2.09,0,4,.2,5.92.2s5.85-.34,7.47-.34c.94,0,1.74.21,1.74.74s-1,1.28-1.74,1.48c-4.17,1-6.53,2.16-9.08,5-2.83,3.36-5.39,6.05-8.21,10a1.72,1.72,0,0,0-.13,1.08c.6,1.75,6.32,11,9.41,15.47,2.36,3.36,4.37,5.71,9.48,6.93,1.28.26,1.62,1,1.55,1.27,0,.74-.87,1.08-2.42,1.08-1.28,0-10-.47-12.78-.47-1.95,0-4.91.4-5.85.4-1.28,0-1.68-.54-1.68-.94s.47-1,1.61-1.41a14.67,14.67,0,0,0,1.82-.74,1.24,1.24,0,0,0,.27-1.08c-.94-1.88-6.93-12.24-7.74-13-.4-.4-.6-.2-.74-.07a79.07,79.07,0,0,0-6.25,8.48c-2.49,4.17-1.62,5.38.94,6.19,1.14.33,1.75.94,1.75,1.27,0,.74-.88,1.15-1.75,1.15-1.82,0-4.57-.27-6.86-.27-2.83,0-5.05.4-6.59.4-1.82,0-2.42-.4-2.42-.87.06-.94.87-1.21,2.35-1.55a15.1,15.1,0,0,0,7.6-4.84C187,64.46,192,58.34,195.22,54a1,1,0,0,0,.07-.94C195,51.68,189.64,42.67,185,36.41a7.29,7.29,0,0,0-5.38-3.36c-1.28-.27-2.09-1-2-1.48S178.27,30.49,179.62,30.49Z" style="fill:url(#Gold_Gradient-5)"/><path d="M231.27,30.49c1.34,0,8.14.34,10.56.34,2.69,0,3.83-.2,6-.2,1.48,0,2.09.33,2.09.81,0,.8-.81,1.34-2.22,1.88a1.22,1.22,0,0,0-.67,1.81,97.08,97.08,0,0,0,6.25,10.77.4.4,0,0,0,.67.06,113.94,113.94,0,0,0,7.74-10.69c.54-.94-.41-1.82-2.29-2.22-1.28-.27-1.75-1.14-1.75-1.48,0-.54.41-.94,1.75-.94,2.09,0,4,.2,5.92.2s5.85-.34,7.47-.34c.94,0,1.74.21,1.74.74s-1,1.28-1.74,1.48c-4.17,1-6.53,2.16-9.08,5-2.83,3.36-5.39,6.05-8.21,10a1.72,1.72,0,0,0-.13,1.08c.6,1.75,6.32,11,9.41,15.47,2.36,3.36,4.37,5.71,9.49,6.93,1.27.26,1.61,1,1.54,1.27,0,.74-.87,1.08-2.42,1.08-1.28,0-10-.47-12.78-.47-1.95,0-4.91.4-5.85.4-1.28,0-1.68-.54-1.68-.94s.47-1,1.61-1.41a14.67,14.67,0,0,0,1.82-.74,1.24,1.24,0,0,0,.27-1.08c-.94-1.88-6.93-12.24-7.74-13-.4-.4-.6-.2-.74-.07A79.07,79.07,0,0,0,242,64.73c-2.49,4.17-1.62,5.38.94,6.19,1.14.33,1.75.94,1.75,1.27,0,.74-.87,1.15-1.75,1.15-1.81,0-4.57-.27-6.86-.27-2.83,0-5,.4-6.59.4-1.82,0-2.42-.4-2.42-.87.06-.94.87-1.21,2.35-1.55a15.1,15.1,0,0,0,7.6-4.84c1.55-1.75,6.59-7.87,9.82-12.18a1,1,0,0,0,.07-.94c-.34-1.41-5.65-10.42-10.29-16.68a7.29,7.29,0,0,0-5.38-3.36c-1.28-.27-2.09-1-2-1.48S229.92,30.49,231.27,30.49Z" style="fill:url(#Gold_Gradient-5)"/><rect y="100.75" width="40.27" height="1.5" style="fill:url(#Gold_Gradient-7)"/><rect x="259.73" y="100.75" width="40.27" height="1.5" style="fill:url(#Gold_Gradient-7)"/><path d="M51,97.43h.74v7.44h3.7v.72H51Z" style="fill:#997e49"/><path d="M57.25,97.43H58v8.16h-.74Z" style="fill:#997e49"/><path d="M60.73,97.43H65v.71H61.48v3.11h3.39V102H61.48v3.63h-.75Z" style="fill:#997e49"/><path d="M67.19,97.43h4.25v.71h-3.5v2.92H71.2v.71H67.94v3.1h3.5v.72H67.19Z" style="fill:#997e49"/><path d="M77.68,97.78v.85a3.31,3.31,0,0,0-1.9-.64c-.87,0-1.67.43-1.67,1.36s.62,1.18,1.83,1.73,2.16,1.12,2.16,2.37a2.37,2.37,0,0,1-2.6,2.31,3.67,3.67,0,0,1-2.22-.76v-.94a3.18,3.18,0,0,0,2.23,1,1.64,1.64,0,0,0,1.82-1.52c0-.83-.61-1.24-1.86-1.81s-2.13-1.06-2.13-2.3a2.21,2.21,0,0,1,2.46-2.15A3.63,3.63,0,0,1,77.68,97.78Z" style="fill:#997e49"/><path d="M81.89,98.14H79.25v-.71h6v.71H82.65v7.45h-.76Z" style="fill:#997e49"/><path d="M89,102.07l-3-4.64h.85l2.51,3.93h0l2.48-3.93h.85l-3,4.63v3.53H89Z" style="fill:#997e49"/><path d="M94.32,97.43h.74v7.44h3.7v.72H94.32Z" style="fill:#997e49"/><path d="M100.54,97.43h4.25v.71h-3.51v2.92h3.27v.71h-3.27v3.1h3.51v.72h-4.25Z" style="fill:#997e49"/><path d="M111.89,98.14h-2.64v-.71h6v.71h-2.64v7.45h-.75Z" style="fill:#997e49"/><path d="M122.48,101.79h-4.67v3.8h-.75V97.43h.75v3.64h4.67V97.43h.75v8.16h-.75Z" style="fill:#997e49"/><path d="M131.07,105.59h-1l-3.22-3.47h-.12v3.47H126V97.43h2c1.86,0,2.75,1,2.75,2.34s-1.07,2.35-2.84,2.35h-.1Zm-3.28-4.14c1.59,0,2.17-.68,2.17-1.68s-.69-1.63-2.06-1.63h-1.19v3.31Z" style="fill:#997e49"/><path d="M132.43,101.51a4,4,0,1,1,4,4.23A4,4,0,0,1,132.43,101.51Zm7.22,0a3.23,3.23,0,1,0-3.21,3.51A3.27,3.27,0,0,0,139.65,101.51Z" style="fill:#997e49"/><path d="M142.51,102.56V97.43h.74v5.19a2.16,2.16,0,0,0,2.22,2.4,2.22,2.22,0,0,0,2.3-2.42V97.43h.75v5.12a3,3,0,0,1-3.05,3.19A2.89,2.89,0,0,1,142.51,102.56Z" style="fill:#997e49"/><path d="M154.56,105a3.78,3.78,0,0,0,1.76-.39v-3.44h.73v3.92a4.87,4.87,0,0,1-2.5.65,4.24,4.24,0,0,1,0-8.47,4.9,4.9,0,0,1,2.3.57v.85a4.39,4.39,0,0,0-2.31-.66,3.5,3.5,0,0,0,0,7Z" style="fill:#997e49"/><path d="M164.82,101.79h-4.67v3.8h-.75V97.43h.75v3.64h4.67V97.43h.76v8.16h-.76Z" style="fill:#997e49"/><path d="M173.08,98.14h-2.63v-.71h6v.71h-2.64v7.45h-.76Z" style="fill:#997e49"/><path d="M178.26,97.43h4.25v.71H179v2.92h3.26v.71H179v3.1h3.5v.72h-4.25Z" style="fill:#997e49"/><path d="M188.15,105.74a4.24,4.24,0,0,1,0-8.47,4.08,4.08,0,0,1,2.13.55v.82a3.89,3.89,0,0,0-2.14-.64,3.52,3.52,0,0,0,0,7,3.82,3.82,0,0,0,2.14-.66v.84A4.1,4.1,0,0,1,188.15,105.74Z" style="fill:#997e49"/><path d="M197.75,101.79h-4.67v3.8h-.75V97.43h.75v3.64h4.67V97.43h.76v8.16h-.76Z" style="fill:#997e49"/><path d="M207.51,105.59h-.68l-4.84-7h0v7h-.75V97.43H202l4.73,6.82h0V97.43h.75Z" style="fill:#997e49"/><path d="M209.68,101.51a4,4,0,1,1,4,4.23A4,4,0,0,1,209.68,101.51Zm7.22,0a3.23,3.23,0,1,0-3.21,3.51A3.27,3.27,0,0,0,216.9,101.51Z" style="fill:#997e49"/><path d="M219.86,97.43h.74v7.44h3.7v.72h-4.44Z" style="fill:#997e49"/><path d="M225.08,101.51a4,4,0,1,1,4,4.23A4,4,0,0,1,225.08,101.51Zm7.21,0a3.23,3.23,0,1,0-3.2,3.51A3.27,3.27,0,0,0,232.29,101.51Z" style="fill:#997e49"/><path d="M238.67,105a3.74,3.74,0,0,0,1.75-.39v-3.44h.74v3.92a4.92,4.92,0,0,1-2.5.65,4.24,4.24,0,0,1,0-8.47,4.83,4.83,0,0,1,2.29.57v.85a4.36,4.36,0,0,0-2.3-.66,3.5,3.5,0,0,0,0,7Z" style="fill:#997e49"/><path d="M245.28,102.07l-3-4.64h.86l2.5,3.93h0l2.49-3.93H249l-3,4.63v3.53h-.73Z" style="fill:#997e49"/></g></g></svg>