<?xml version="1.0" encoding="utf-8"?>
<!-- Generator: Adobe Illustrator 25.2.1, SVG Export Plug-In . SVG Version: 6.00 Build 0)  -->
<svg version="1.1" id="Layer_1" xmlns="http://www.w3.org/2000/svg" xmlns:xlink="http://www.w3.org/1999/xlink" x="0px" y="0px"
	 viewBox="0 0 322.7 110" style="enable-background:new 0 0 322.7 110;" xml:space="preserve">
<style type="text/css">
	.st0{fill:url(#SVGID_1_);}
	.st1{fill:url(#SVGID_2_);}
	.st2{fill:url(#SVGID_3_);}
	.st3{fill:url(#SVGID_4_);}
	.st4{fill:url(#SVGID_5_);}
	.st5{fill:url(#SVGID_6_);}
	.st6{fill:url(#SVGID_7_);}
</style>
<g id="Layer_2_1_">
	<g id="Logos">
		
			<linearGradient id="SVGID_1_" gradientUnits="userSpaceOnUse" x1="-16.8642" y1="977.5889" x2="333.2531" y2="977.5889" gradientTransform="matrix(1 0 0 1 0 -976)">
			<stop  offset="0" style="stop-color:#805E1B"/>
			<stop  offset="7.000000e-02" style="stop-color:#896722"/>
			<stop  offset="0.18" style="stop-color:#A17F35"/>
			<stop  offset="0.33" style="stop-color:#C8A754"/>
			<stop  offset="0.5" style="stop-color:#FEDD7F"/>
			<stop  offset="0.5" style="stop-color:#FFDF80"/>
			<stop  offset="0.51" style="stop-color:#FDDD7E"/>
			<stop  offset="0.66" style="stop-color:#C7A654"/>
			<stop  offset="0.79" style="stop-color:#A17E36"/>
			<stop  offset="0.9" style="stop-color:#896623"/>
			<stop  offset="0.96" style="stop-color:#805D1C"/>
		</linearGradient>
		<rect x="0" class="st0" width="322.8" height="3.2"/>
		
			<linearGradient id="SVGID_2_" gradientUnits="userSpaceOnUse" x1="-16.8642" y1="1031.1222" x2="333.2531" y2="1031.1222" gradientTransform="matrix(1 0 0 1 0 -976)">
			<stop  offset="0" style="stop-color:#805E1B"/>
			<stop  offset="7.000000e-02" style="stop-color:#896722"/>
			<stop  offset="0.18" style="stop-color:#A17F35"/>
			<stop  offset="0.33" style="stop-color:#C8A754"/>
			<stop  offset="0.5" style="stop-color:#FEDD7F"/>
			<stop  offset="0.5" style="stop-color:#FFDF80"/>
			<stop  offset="0.51" style="stop-color:#FDDD7E"/>
			<stop  offset="0.66" style="stop-color:#C7A654"/>
			<stop  offset="0.79" style="stop-color:#A17E36"/>
			<stop  offset="0.9" style="stop-color:#896623"/>
			<stop  offset="0.96" style="stop-color:#805D1C"/>
		</linearGradient>
		<path class="st1" d="M29.5,31c2.1,0,6.2,0.2,8.4,0.2c2.9,0,8.2-0.4,10-0.4c1.8,0,2.4,0.4,2.4,0.9c0,0.9-1,1.5-1.6,1.6
			c-3.9,1-4.5,2.2-4.6,3.1c-0.5,3.9-0.6,11.6-0.6,22.7c0,4.9,0,10.5,0.2,13.2c0.2,2.2,2.7,2.9,2.9,2.9c2,0.2,3.9,0.5,5.7,0.5
			c1.8,0,3.7-0.1,5.4-0.5c0.7-0.1,1.3-0.4,2-0.9c2-1.8,3.7-3.9,5-6.2c0.5-0.7,1.2-1.3,2.1-1.5c0.6,0,0.7,0.9,0.2,2.1
			c-0.7,2.2-2.1,7.6-2.4,9.3c-0.5,0.5-1,1-1.7,1.2c-1.2,0-7.9-0.5-23.1-0.5c-2.9,0-8.9,0.5-11.9,0.5c-1.3,0-2.3-0.2-2.3-1
			s0.7-1.2,2-1.5c4.2-0.7,4.6-2.1,5-5.5c0.1-1.8,0.4-7.9,0.4-18.7c0-9.3,0-11.2-0.1-13.7c-0.1-3.1-0.5-4-3.9-5
			c-1.5-0.4-2.2-1-2.2-1.5C27.3,31.3,28.3,31,29.5,31z"/>
		
			<linearGradient id="SVGID_3_" gradientUnits="userSpaceOnUse" x1="-16.8642" y1="1032.4121" x2="333.2531" y2="1032.4121" gradientTransform="matrix(1 0 0 1 0 -976)">
			<stop  offset="0" style="stop-color:#805E1B"/>
			<stop  offset="7.000000e-02" style="stop-color:#896722"/>
			<stop  offset="0.18" style="stop-color:#A17F35"/>
			<stop  offset="0.33" style="stop-color:#C8A754"/>
			<stop  offset="0.5" style="stop-color:#FEDD7F"/>
			<stop  offset="0.5" style="stop-color:#FFDF80"/>
			<stop  offset="0.51" style="stop-color:#FDDD7E"/>
			<stop  offset="0.66" style="stop-color:#C7A654"/>
			<stop  offset="0.79" style="stop-color:#A17E36"/>
			<stop  offset="0.9" style="stop-color:#896623"/>
			<stop  offset="0.96" style="stop-color:#805D1C"/>
		</linearGradient>
		<path class="st2" d="M77.4,32.8c3.1,0,6.2,0.4,8.9,0.4c2.6,0,7.3-0.4,8.9-0.4c1.3,0,2.2,0.6,2.2,1.2s-0.9,1.2-2.2,1.5
			c-2.6,0.5-3.2,1.5-3.7,4.3c-0.2,2.4-0.2,9-0.2,19.2c0,8.4,1.7,10.8,4.2,13.1c2,2,6.7,2.9,8.1,2.9c5,0,10.4-1.3,12.2-9.2
			c0.9-3.8,1.2-10,1.2-20.8c0-4.6-0.2-5-0.4-5.9c-0.2-1.8-1.8-3.1-4.9-3.8c-0.7-0.2-2.2-0.7-2.2-1.5c0-0.5,0.9-1,2.2-1
			c1.7,0,4.5,0.4,6.8,0.4c2.9,0,4.8-0.4,6.8-0.4c1.2,0,1.8,0.6,1.8,1.2s-1,1.1-2.1,1.3c-3.7,0.9-4.6,2.3-4.6,6.8
			c0,3.5-0.5,12.5-0.6,16.3c-0.6,12-4.3,16.4-9.5,19.3c-2.9,1.6-6.4,2.3-9.7,2.2c-6.6,0-11.2-2.1-13.9-4.5c-4-3.8-5.7-7.7-5.7-18.9
			c0-3.1-0.2-17-0.4-17.8c-0.1-1.3-0.7-2.7-3.4-3.2c-0.9-0.2-2.1-0.9-2.1-1.5C75.2,33.5,76.2,32.8,77.4,32.8z"/>
		
			<linearGradient id="SVGID_4_" gradientUnits="userSpaceOnUse" x1="-16.8642" y1="1032.4121" x2="333.2531" y2="1032.4121" gradientTransform="matrix(1 0 0 1 0 -976)">
			<stop  offset="0" style="stop-color:#805E1B"/>
			<stop  offset="7.000000e-02" style="stop-color:#896722"/>
			<stop  offset="0.18" style="stop-color:#A17F35"/>
			<stop  offset="0.33" style="stop-color:#C8A754"/>
			<stop  offset="0.5" style="stop-color:#FEDD7F"/>
			<stop  offset="0.5" style="stop-color:#FFDF80"/>
			<stop  offset="0.51" style="stop-color:#FDDD7E"/>
			<stop  offset="0.66" style="stop-color:#C7A654"/>
			<stop  offset="0.79" style="stop-color:#A17E36"/>
			<stop  offset="0.9" style="stop-color:#896623"/>
			<stop  offset="0.96" style="stop-color:#805D1C"/>
		</linearGradient>
		<path class="st3" d="M135.4,32.8c3.1,0,6.2,0.4,8.9,0.4c2.6,0,7.3-0.4,8.9-0.4c1.3,0,2.1,0.6,2.1,1.2s-0.9,1.2-2.2,1.5
			c-2.6,0.5-3.2,1.5-3.7,4.3c-0.2,2.4-0.2,9-0.2,19.2c0,8.4,1.7,10.8,4.2,13.1c2,2,6.7,2.9,8.1,2.9c5,0,10.4-1.3,12.2-9.2
			c0.9-3.8,1.2-10,1.2-20.8c0-4.6-0.2-5-0.4-5.9c-0.2-1.8-1.8-3.1-4.9-3.8c-0.7-0.2-2.1-0.7-2.1-1.5c0-0.5,0.9-1,2.1-1
			c1.7,0,4.5,0.4,6.8,0.4c2.9,0,4.8-0.4,6.8-0.4c1.2,0,1.8,0.6,1.8,1.2s-1.1,1.1-2.1,1.3c-3.7,0.9-4.6,2.3-4.6,6.8
			c0,3.5-0.5,12.5-0.6,16.3c-0.6,12-4.3,16.4-9.5,19.3c-2.9,1.6-6.2,2.3-9.7,2.2c-6.6,0-11.2-2.1-13.9-4.5c-4-3.8-5.7-7.7-5.7-18.9
			c0-3.1-0.2-17-0.4-17.8c-0.1-1.3-0.7-2.7-3.4-3.2c-0.9-0.2-2.2-0.9-2.2-1.5C133.1,33.4,134,32.8,135.4,32.8z"/>
		
			<linearGradient id="SVGID_5_" gradientUnits="userSpaceOnUse" x1="-16.8642" y1="1031.8556" x2="333.2531" y2="1031.8556" gradientTransform="matrix(1 0 0 1 0 -976)">
			<stop  offset="0" style="stop-color:#805E1B"/>
			<stop  offset="7.000000e-02" style="stop-color:#896722"/>
			<stop  offset="0.18" style="stop-color:#A17F35"/>
			<stop  offset="0.33" style="stop-color:#C8A754"/>
			<stop  offset="0.5" style="stop-color:#FEDD7F"/>
			<stop  offset="0.5" style="stop-color:#FFDF80"/>
			<stop  offset="0.51" style="stop-color:#FDDD7E"/>
			<stop  offset="0.66" style="stop-color:#C7A654"/>
			<stop  offset="0.79" style="stop-color:#A17E36"/>
			<stop  offset="0.9" style="stop-color:#896623"/>
			<stop  offset="0.96" style="stop-color:#805D1C"/>
		</linearGradient>
		<path class="st4" d="M193.2,32.8c1.5,0,8.8,0.4,11.4,0.4c2.9,0,4.2-0.2,6.5-0.2c1.6,0,2.2,0.4,2.2,0.9c0,0.9-0.9,1.5-2.4,2.1
			c-0.7,0.2-1.1,1-0.9,1.6c0,0.1,0.1,0.2,0.1,0.2c2,4,4.3,7.8,6.7,11.6c0.1,0.2,0.4,0.2,0.6,0.1l0.1-0.1c2.9-3.7,5.7-7.5,8.3-11.5
			c0.6-1-0.5-2-2.4-2.4c-1.3-0.2-1.8-1.2-1.8-1.6c0-0.6,0.5-1,1.8-1c2.2,0,4.3,0.2,6.4,0.2s6.2-0.4,8.1-0.4c1,0,1.8,0.2,1.8,0.9
			s-1.1,1.3-1.8,1.6c-4.5,1.1-7,2.3-9.8,5.4c-3.1,3.7-5.7,6.5-8.8,10.8c-0.1,0.4-0.2,0.7-0.1,1.2c0.6,1.8,6.8,11.9,10.1,16.6
			c2.6,3.7,4.6,6.1,10.1,7.5c1.3,0.2,1.7,1.1,1.7,1.3c0,0.9-1,1.2-2.6,1.2c-1.3,0-10.8-0.5-13.7-0.5c-2.1,0-5.3,0.5-6.2,0.5
			c-1.3,0-1.8-0.6-1.8-1c0-0.4,0.5-1.1,1.7-1.5c0.6-0.2,1.3-0.5,2-0.9c0.2-0.4,0.4-0.7,0.2-1.2c-1-2.1-7.5-13.2-8.3-13.9
			c-0.5-0.5-0.6-0.2-0.9-0.1c-2.4,2.9-4.6,6-6.7,9.2c-2.7,4.5-1.7,5.7,1,6.6c1.2,0.4,1.8,1,1.8,1.3c0,0.9-1,1.2-1.8,1.2
			c-2,0-4.9-0.2-7.3-0.2c-3.1,0-5.4,0.5-7.1,0.5c-2,0-2.6-0.5-2.6-1c0.1-1,1-1.3,2.6-1.7c3.2-0.9,6-2.7,8.2-5.3
			c1.7-1.8,7.1-8.4,10.6-13.1c0.2-0.2,0.2-0.7,0.1-1c-0.4-1.5-6.1-11.1-11.1-18c-1.2-2.1-3.4-3.3-5.7-3.7c-1.3-0.2-2.2-1.1-2.2-1.6
			C191.2,33.5,191.8,32.8,193.2,32.8z"/>
		
			<linearGradient id="SVGID_6_" gradientUnits="userSpaceOnUse" x1="-16.8642" y1="1031.8556" x2="333.2531" y2="1031.8556" gradientTransform="matrix(1 0 0 1 0 -976)">
			<stop  offset="0" style="stop-color:#805E1B"/>
			<stop  offset="7.000000e-02" style="stop-color:#896722"/>
			<stop  offset="0.18" style="stop-color:#A17F35"/>
			<stop  offset="0.33" style="stop-color:#C8A754"/>
			<stop  offset="0.5" style="stop-color:#FEDD7F"/>
			<stop  offset="0.5" style="stop-color:#FFDF80"/>
			<stop  offset="0.51" style="stop-color:#FDDD7E"/>
			<stop  offset="0.66" style="stop-color:#C7A654"/>
			<stop  offset="0.79" style="stop-color:#A17E36"/>
			<stop  offset="0.9" style="stop-color:#896623"/>
			<stop  offset="0.96" style="stop-color:#805D1C"/>
		</linearGradient>
		<path class="st5" d="M248.8,32.8c1.5,0,8.8,0.4,11.4,0.4c2.9,0,4.2-0.2,6.5-0.2c1.6,0,2.2,0.4,2.2,0.9c0,0.9-0.9,1.5-2.4,2.1
			c-0.7,0.2-1.1,1-0.9,1.6c0,0.1,0.1,0.2,0.1,0.2c2,4,4.3,7.8,6.7,11.6c0.1,0.2,0.4,0.2,0.6,0.1l0.1-0.1c3.1-3.7,5.7-7.5,8.3-11.5
			c0.6-1-0.5-2-2.4-2.4c-1.3-0.2-1.8-1.2-1.8-1.6c0-0.6,0.5-1,1.8-1c2.2,0,4.3,0.2,6.4,0.2s6.2-0.4,8.1-0.4c1,0,1.8,0.2,1.8,0.9
			s-1.1,1.3-1.8,1.6c-4.5,1.1-7,2.3-9.8,5.4c-3.1,3.7-5.7,6.5-8.8,10.8c-0.1,0.4-0.2,0.7-0.1,1.2c0.6,1.8,6.8,11.9,10.1,16.6
			c2.6,3.7,4.6,6.1,10.3,7.5c1.3,0.2,1.7,1.1,1.7,1.3c0,0.9-1,1.2-2.6,1.2c-1.3,0-10.8-0.5-13.7-0.5c-2.1,0-5.3,0.5-6.2,0.5
			c-1.3,0-1.8-0.6-1.8-1c0-0.4,0.5-1.1,1.7-1.5c0.6-0.2,1.3-0.5,2-0.9c0.2-0.4,0.4-0.7,0.2-1.2c-1-2.1-7.5-13.2-8.3-13.9
			c-0.5-0.5-0.6-0.2-0.9-0.1c-2.4,2.9-4.8,6-6.7,9.2c-2.7,4.5-1.7,5.7,1,6.6c1.2,0.4,1.8,1,1.8,1.3c0,0.9-1,1.2-1.8,1.2
			c-2,0-4.9-0.2-7.3-0.2c-3.1,0-5.4,0.5-7.1,0.5c-2,0-2.6-0.5-2.6-1c0.1-1,1-1.3,2.6-1.7c3.2-0.9,6-2.7,8.2-5.3
			c1.7-1.8,7.1-8.4,10.5-13.1c0.2-0.2,0.2-0.7,0.1-1c-0.4-1.5-6.1-11.2-11.1-18c-1.2-2.1-3.4-3.3-5.7-3.7c-1.3-0.2-2.2-1.1-2.2-1.6
			C246.7,33.5,247.3,32.8,248.8,32.8z"/>
		
			<linearGradient id="SVGID_7_" gradientUnits="userSpaceOnUse" x1="-16.8642" y1="1085.2056" x2="333.2531" y2="1085.2056" gradientTransform="matrix(1 0 0 1 0 -976)">
			<stop  offset="0" style="stop-color:#805E1B"/>
			<stop  offset="7.000000e-02" style="stop-color:#896722"/>
			<stop  offset="0.18" style="stop-color:#A17F35"/>
			<stop  offset="0.33" style="stop-color:#C8A754"/>
			<stop  offset="0.5" style="stop-color:#FEDD7F"/>
			<stop  offset="0.5" style="stop-color:#FFDF80"/>
			<stop  offset="0.51" style="stop-color:#FDDD7E"/>
			<stop  offset="0.66" style="stop-color:#C7A654"/>
			<stop  offset="0.79" style="stop-color:#A17E36"/>
			<stop  offset="0.9" style="stop-color:#896623"/>
			<stop  offset="0.96" style="stop-color:#805D1C"/>
		</linearGradient>
		<rect x="0" y="108.4" class="st6" width="322.8" height="1.6"/>
	</g>
</g>
</svg>
