<svg xmlns="http://www.w3.org/2000/svg" viewBox="0 0 300 129.26"><g id="Layer_2" data-name="Layer 2"><g id="Logos"><path d="M0,0V100H300V0ZM62.73,62.25c-.63,2-1.89,7.08-2.31,8.69a3.67,3.67,0,0,1-1.54,1.12c-1.19,0-7.36-.49-21.51-.49-2.73,0-8.27.42-11,.42-1.26,0-2.17-.28-2.17-.91s.7-1.19,1.82-1.4c3.85-.7,4.34-1.89,4.63-5.12.13-1.75.35-7.35.35-17.37,0-8.69,0-10.44-.07-12.75-.08-2.81-.43-3.79-3.58-4.63-1.33-.35-2-.91-2-1.4,0-.77.91-1.05,2.1-1.05,1.89,0,5.82.21,7.85.21,2.73,0,7.64-.35,9.32-.35s2.31.35,2.31.84c0,.77-.91,1.33-1.47,1.47-3.65.91-4.21,2-4.28,2.81-.49,3.64-.56,10.79-.56,21.08,0,4.56,0,9.81.28,12.26.21,2,2.53,2.74,2.67,2.74a35.85,35.85,0,0,0,5.39.42,25.25,25.25,0,0,0,5-.49,3.85,3.85,0,0,0,1.82-.78,29.42,29.42,0,0,0,4.69-5.81,3,3,0,0,1,1.89-1.4C63,60.36,63.08,61.2,62.73,62.25Zm53.54-31c-3.43.74-4.3,2.15-4.3,6.32,0,3.3-.41,11.57-.54,15.07-.54,11.16-4,15.27-8.81,18a18,18,0,0,1-9,2.09c-6.12,0-10.42-1.88-12.91-4.17C77,65.11,75.44,61.48,75.44,51c0-2.83-.27-15.74-.33-16.55-.14-1.28-.68-2.49-3.23-3-.74-.21-1.95-.74-1.95-1.35S70.8,29,72,29c2.83,0,5.85.34,8.28.34S87.15,29,88.63,29c1.27,0,2,.54,2,1.08s-.81,1.14-2.09,1.41c-2.42.47-3,1.35-3.43,4-.27,2.22-.27,8.41-.27,17.89,0,7.87,1.62,10,3.84,12.18,1.81,1.81,6.25,2.69,7.46,2.69,4.71,0,9.69-1.28,11.37-8.55.81-3.56,1.14-9.28,1.14-19.37,0-4.37-.2-4.71-.33-5.44-.27-1.75-1.69-2.83-4.51-3.57-.67-.2-2-.67-2-1.41,0-.41.74-.88,2-.88,1.55,0,4.24.34,6.39.34,2.69,0,4.44-.34,6.32-.34,1.08,0,1.68.54,1.68,1.08S117.21,31.08,116.27,31.28Zm53.8,0c-3.43.74-4.3,2.15-4.3,6.32,0,3.3-.41,11.57-.54,15.07-.54,11.16-4,15.27-8.81,18a18,18,0,0,1-8.95,2.09c-6.12,0-10.42-1.88-12.91-4.17-3.77-3.5-5.31-7.13-5.31-17.62,0-2.83-.27-15.74-.34-16.55-.13-1.28-.67-2.49-3.23-3-.74-.21-2-.74-2-1.35s.88-1.08,2.09-1.08c2.82,0,5.85.34,8.27.34S141,29,142.43,29c1.28,0,1.95.54,1.95,1.08s-.81,1.14-2.09,1.41c-2.42.47-3,1.35-3.43,4-.27,2.22-.27,8.41-.27,17.89,0,7.87,1.62,10,3.84,12.18,1.82,1.81,6.25,2.69,7.46,2.69,4.71,0,9.69-1.28,11.37-8.55.81-3.56,1.14-9.28,1.14-19.37,0-4.37-.2-4.71-.33-5.44-.27-1.75-1.68-2.83-4.51-3.57-.67-.2-1.95-.67-1.95-1.41,0-.41.74-.88,1.95-.88,1.55,0,4.24.34,6.39.34,2.69,0,4.44-.34,6.32-.34,1.08,0,1.69.54,1.69,1.08S171,31.08,170.07,31.28ZM224.14,71c0,.74-.87,1.08-2.42,1.08-1.28,0-10-.47-12.78-.47-1.95,0-4.91.4-5.85.4-1.28,0-1.68-.54-1.68-.94s.47-1,1.61-1.41a14.67,14.67,0,0,0,1.82-.74,1.24,1.24,0,0,0,.27-1.08c-.94-1.88-6.93-12.24-7.74-13-.4-.4-.6-.2-.74-.07a79.07,79.07,0,0,0-6.25,8.48c-2.49,4.17-1.62,5.38.94,6.19,1.14.33,1.75.94,1.75,1.27,0,.74-.88,1.15-1.75,1.15-1.82,0-4.57-.27-6.86-.27-2.83,0-5.05.4-6.59.4-1.82,0-2.42-.4-2.42-.87.06-.94.87-1.21,2.35-1.55a15.1,15.1,0,0,0,7.6-4.84C187,63,192,56.84,195.22,52.53a1,1,0,0,0,.07-.94C195,50.18,189.64,41.17,185,34.91a7.29,7.29,0,0,0-5.38-3.36c-1.28-.27-2.09-1-2-1.48s.67-1.08,2-1.08,8.14.34,10.56.34c2.69,0,3.83-.2,6-.2,1.48,0,2.09.33,2.09.81,0,.8-.81,1.34-2.22,1.88a1.22,1.22,0,0,0-.67,1.81,94,94,0,0,0,6.25,10.77.4.4,0,0,0,.67.06A113.94,113.94,0,0,0,210,33.77c.54-.94-.41-1.82-2.29-2.22-1.28-.27-1.75-1.14-1.75-1.48,0-.54.41-.94,1.75-.94,2.09,0,4,.2,5.92.2s5.85-.34,7.47-.34c.94,0,1.74.21,1.74.74s-1,1.28-1.74,1.48c-4.17,1-6.53,2.16-9.08,5-2.83,3.36-5.39,6.05-8.21,10a1.72,1.72,0,0,0-.13,1.08c.6,1.75,6.32,11,9.41,15.47,2.36,3.36,4.37,5.71,9.48,6.93C223.87,70,224.21,70.69,224.14,71Zm51.65,0c0,.74-.87,1.08-2.42,1.08-1.28,0-10-.47-12.78-.47-1.95,0-4.91.4-5.85.4-1.28,0-1.68-.54-1.68-.94s.47-1,1.61-1.41a14.67,14.67,0,0,0,1.82-.74,1.24,1.24,0,0,0,.27-1.08c-.94-1.88-6.93-12.24-7.74-13-.4-.4-.6-.2-.74-.07A79.07,79.07,0,0,0,242,63.23c-2.49,4.17-1.62,5.38.94,6.19,1.14.33,1.75.94,1.75,1.27,0,.74-.87,1.15-1.75,1.15-1.81,0-4.57-.27-6.86-.27-2.83,0-5,.4-6.59.4-1.82,0-2.42-.4-2.42-.87.06-.94.87-1.21,2.35-1.55a15.1,15.1,0,0,0,7.6-4.84c1.55-1.75,6.59-7.87,9.82-12.18a1,1,0,0,0,.07-.94c-.34-1.41-5.65-10.42-10.29-16.68a7.29,7.29,0,0,0-5.38-3.36c-1.28-.27-2.09-1-2-1.48s.67-1.08,2-1.08,8.14.34,10.56.34c2.69,0,3.83-.2,6-.2,1.48,0,2.09.33,2.09.81,0,.8-.81,1.34-2.22,1.88a1.22,1.22,0,0,0-.67,1.81,97.08,97.08,0,0,0,6.25,10.77.4.4,0,0,0,.67.06,113.94,113.94,0,0,0,7.74-10.69c.54-.94-.41-1.82-2.29-2.22-1.28-.27-1.75-1.14-1.75-1.48,0-.54.41-.94,1.75-.94,2.09,0,4,.2,5.92.2s5.85-.34,7.47-.34c.94,0,1.74.21,1.74.74s-1,1.28-1.74,1.48c-4.17,1-6.53,2.16-9.08,5-2.83,3.36-5.39,6.05-8.21,10a1.72,1.72,0,0,0-.13,1.08c.6,1.75,6.32,11,9.41,15.47,2.36,3.36,4.37,5.71,9.49,6.93C275.52,70,275.86,70.69,275.79,71Z" style="fill:#0d2d49"/><path d="M61.59,129h-1l1.64-10.44h1.2l3.15,9h0l3.06-9h1.24L72.55,129h-1l-1.39-9h0L67,129h-.9L63,120.1h0Z" style="fill:#0d2d49"/><path d="M75.45,118.59h5.44v.92H76.41v3.73h4.17v.9H76.41v4h4.48V129H75.45Z" style="fill:#0d2d49"/><path d="M91.84,123.81c0,3.16-2.23,5.22-5.51,5.22H84V118.59h2.33C89.69,118.59,91.84,120.67,91.84,123.81ZM85,128.12h1.42c2.59,0,4.47-1.56,4.47-4.3a4.09,4.09,0,0,0-4.44-4.31H85Z" style="fill:#0d2d49"/><path d="M94.77,118.59h1V129h-1Z" style="fill:#0d2d49"/><path d="M106.4,129l-1.33-3.38H100.4L99.07,129H98l4.17-10.44h1.07L107.46,129Zm-5.64-4.31h4l-2-5Z" style="fill:#0d2d49"/><path d="M120.34,129H119l-4.12-4.44h-.15V129h-1V118.59h2.59c2.37,0,3.51,1.3,3.51,3,0,1.88-1.36,3-3.63,3h-.12Zm-4.19-5.29c2,0,2.77-.88,2.77-2.15s-.89-2.08-2.63-2.08h-1.53v4.23Z" style="fill:#0d2d49"/><path d="M122.22,123.82a5.12,5.12,0,1,1,5.13,5.41A5.16,5.16,0,0,1,122.22,123.82Zm9.23,0a4.13,4.13,0,1,0-4.1,4.48A4.19,4.19,0,0,0,131.45,123.82Z" style="fill:#0d2d49"/><path d="M134.68,123.82a5.12,5.12,0,1,1,5.13,5.41A5.16,5.16,0,0,1,134.68,123.82Zm9.23,0a4.13,4.13,0,1,0-4.1,4.48A4.19,4.19,0,0,0,143.91,123.82Z" style="fill:#0d2d49"/><path d="M148.07,129h-1l1.65-10.44h1.19l3.15,9h0l3.06-9h1.23L159,129h-1l-1.39-9h0l-3.1,9h-.9l-3.15-8.93h0Z" style="fill:#0d2d49"/><path d="M166.45,118.59h2.37c2.34,0,3.92,1.21,3.92,3.3s-1.57,3.41-3.9,3.41H167.4V129h-1Zm5.31,3.32c0-1.55-1.08-2.4-2.87-2.4H167.4v4.86h1.49C170.68,124.37,171.76,123.45,171.76,121.91Z" style="fill:#0d2d49"/><path d="M181.81,129l-1.33-3.38h-4.67L174.48,129h-1l4.17-10.44h1.07L182.86,129Zm-5.65-4.31h4l-2-5Z" style="fill:#0d2d49"/><path d="M189.33,129.23a5.42,5.42,0,0,1,0-10.83,5.22,5.22,0,0,1,2.73.7v1.05a5,5,0,0,0-2.74-.83,4.5,4.5,0,0,0,0,9,4.89,4.89,0,0,0,2.74-.84v1.08A5.27,5.27,0,0,1,189.33,129.23Z" style="fill:#0d2d49"/><path d="M200.86,129l-5.07-5.15V129h-1V118.59h1v5.15l5.06-5.15h1.26L197,123.81l5.22,5.22Z" style="fill:#0d2d49"/><path d="M211.46,129l-1.34-3.38h-4.66L204.13,129h-1l4.17-10.44h1.07L212.51,129Zm-5.65-4.31h4l-2-5Z" style="fill:#0d2d49"/><path d="M218.94,128.27a4.73,4.73,0,0,0,2.25-.49v-4.4h.94v5a6.35,6.35,0,0,1-3.2.83,5.43,5.43,0,0,1,0-10.83,6.06,6.06,0,0,1,2.93.73v1.08a5.58,5.58,0,0,0-3-.84,4.47,4.47,0,0,0,0,8.9Z" style="fill:#0d2d49"/><path d="M225.28,118.59h5.44v.92h-4.48v3.73h4.17v.9h-4.17v4h4.48V129h-5.44Z" style="fill:#0d2d49"/><path d="M238.85,119v1.1a4.2,4.2,0,0,0-2.44-.83c-1.11,0-2.13.56-2.13,1.74s.79,1.52,2.33,2.22,2.77,1.43,2.77,3a3,3,0,0,1-3.33,3,4.63,4.63,0,0,1-2.84-1v-1.19a4.06,4.06,0,0,0,2.85,1.24,2.1,2.1,0,0,0,2.34-1.94c0-1.07-.79-1.59-2.38-2.32s-2.72-1.35-2.72-2.94c0-1.81,1.46-2.75,3.14-2.75A4.82,4.82,0,0,1,238.85,119Z" style="fill:#0d2d49"/></g></g></svg>